<svg width="35" height="35" viewBox="0 0 35 35" fill="none" xmlns="http://www.w3.org/2000/svg">
<g clip-path="url(#clip0_2_254)">
<path d="M17.5 35C7.835 35 0 27.165 0 17.5C0 7.835 7.835 0 17.5 0C27.165 0 35 7.835 35 17.5C35 27.165 27.165 35 17.5 35Z" fill="#1E1E1E"/>
<path d="M17.5 9.6373C20.0656 9.6373 20.3691 9.64649 21.3807 9.69247C22.3187 9.73845 22.8245 9.89478 23.1647 10.0235C23.6153 10.1983 23.928 10.4098 24.2682 10.7408C24.6085 11.0811 24.8108 11.3937 24.9855 11.8443C25.1143 12.1846 25.2706 12.6904 25.3166 13.6284C25.3626 14.6399 25.3717 14.9434 25.3717 17.5091C25.3717 20.0748 25.3626 20.3782 25.3166 21.3898C25.2706 22.3278 25.1143 22.8336 24.9855 23.1738C24.8108 23.6244 24.5993 23.9371 24.2682 24.2773C23.9372 24.6084 23.6153 24.8199 23.1647 24.9946C22.8245 25.1234 22.3187 25.2797 21.3807 25.3257C20.3691 25.3717 20.0656 25.3809 17.5 25.3809C14.9343 25.3809 14.6308 25.3717 13.6192 25.3257C12.6813 25.2797 12.1755 25.1234 11.8352 24.9946C11.3846 24.8199 11.072 24.6084 10.7317 24.2773C10.4006 23.9371 10.1891 23.6244 10.0144 23.1738C9.88567 22.8336 9.72934 22.3278 9.68336 21.3898C9.63738 20.3782 9.62818 20.0748 9.62818 17.5091C9.62818 14.9434 9.63738 14.6399 9.68336 13.6284C9.72934 12.6904 9.88567 12.1846 10.0144 11.8443C10.1891 11.3937 10.4006 11.0811 10.7317 10.7408C11.072 10.4006 11.3846 10.1983 11.8352 10.0235C12.1755 9.89478 12.6813 9.73845 13.6192 9.69247C14.6308 9.64649 14.9343 9.6373 17.5 9.6373ZM17.5 7.90845C14.8975 7.90845 14.5664 7.91764 13.5457 7.96362C12.5249 8.0096 11.826 8.17513 11.2191 8.41423C10.5846 8.66252 10.0512 8.98438 9.51783 9.51775C8.98446 10.0511 8.65341 10.5845 8.41431 11.219C8.17521 11.8259 8.01888 12.5248 7.9729 13.5456C7.92692 14.5664 7.91772 14.8974 7.91772 17.4999C7.91772 20.1024 7.92692 20.4334 7.9729 21.4542C8.01888 22.4749 8.18441 23.1738 8.41431 23.7808C8.6626 24.4153 8.98446 24.9486 9.51783 25.482C10.0512 26.0154 10.5846 26.3464 11.2191 26.5855C11.826 26.8246 12.5249 26.981 13.5457 27.0361C14.5664 27.0821 14.8975 27.0913 17.5 27.0913C20.1024 27.0913 20.4335 27.0821 21.4542 27.0361C22.475 26.9902 23.1739 26.8246 23.7808 26.5855C24.4154 26.3372 24.9487 26.0154 25.4821 25.482C26.0155 24.9486 26.3465 24.4153 26.5856 23.7808C26.8247 23.1738 26.981 22.4749 27.0362 21.4542C27.0822 20.4334 27.0914 20.1024 27.0914 17.4999C27.0914 14.8974 27.0822 14.5664 27.0362 13.5456C26.9902 12.5248 26.8247 11.8259 26.5856 11.219C26.3373 10.5845 26.0155 10.0511 25.4821 9.51775C24.9487 8.98438 24.4154 8.65332 23.7808 8.41423C23.1739 8.17513 22.475 8.0188 21.4542 7.96362C20.4335 7.91764 20.1024 7.90845 17.5 7.90845Z" fill="white"/>
<path d="M17.5 12.5708C14.778 12.5708 12.5709 14.7778 12.5709 17.4999C12.5709 20.2219 14.778 22.4289 17.5 22.4289C20.222 22.4289 22.429 20.2219 22.429 17.4999C22.429 14.7778 20.222 12.5708 17.5 12.5708ZM17.5 20.7001C15.7343 20.7001 14.2998 19.2655 14.2998 17.4999C14.2998 15.7342 15.7343 14.2997 17.5 14.2997C19.2656 14.2997 20.7002 15.7342 20.7002 17.4999C20.7002 19.2655 19.2656 20.7001 17.5 20.7001Z" fill="white"/>
<path d="M23.7717 12.3778C23.7717 13.0123 23.2567 13.5273 22.6222 13.5273C21.9876 13.5273 21.4727 13.0123 21.4727 12.3778C21.4727 11.7432 21.9876 11.2283 22.6222 11.2283C23.2567 11.2283 23.7717 11.7432 23.7717 12.3778Z" fill="white"/>
</g>
<defs>
<clipPath id="clip0_2_254">
<rect width="35" height="35" fill="white"/>
</clipPath>
</defs>
</svg>
