<svg width="147" height="41" viewBox="0 0 147 41" fill="none" xmlns="http://www.w3.org/2000/svg">
<g clip-path="url(#clip0_128_49)">
<path fill-rule="evenodd" clip-rule="evenodd" d="M1.54004 21.9649C-0.518555 23.9848 -0.518555 27.2537 1.54004 29.266C3.59864 31.2859 6.93011 31.2859 8.98085 29.266L23.1239 15.3886L19.3524 11.6879C17.3488 9.71426 14.0173 9.71426 11.9509 11.7419L1.54004 21.9649ZM6.00295 20.5078L13.4359 13.2144C14.6695 12.004 16.6652 12.004 17.8988 13.2144C19.1324 14.4249 19.1324 16.3831 17.8988 17.5935L11.2044 24.1622L8.97299 21.9726C8.13227 21.1477 7.08725 20.662 5.9951 20.5155L6.00295 20.5078ZM7.49583 27.8088C6.26224 29.0193 4.2665 29.0193 3.03292 27.8088C1.79933 26.5984 1.79933 24.6402 3.03292 23.4298C4.2665 22.2193 6.26224 22.2193 7.49583 23.4298L9.72729 25.6193L7.49583 27.8088Z" fill="white"/>
<path fill-rule="evenodd" clip-rule="evenodd" d="M11.9587 39.4887C14.0095 41.5009 17.3488 41.5087 19.3995 39.4887L23.1239 35.8343L12.7052 25.6113L11.2201 27.0685L17.9145 33.6371C19.1481 34.8475 19.1481 36.8058 17.9145 38.0162C16.6809 39.2266 14.6852 39.2266 13.4516 38.0162L6.01079 30.7151C4.43149 30.9387 2.76575 30.453 1.54788 29.258C1.52431 29.2349 8.51725 36.0965 11.9666 39.481L11.9587 39.4887Z" fill="#6DC24B"/>
<path fill-rule="evenodd" clip-rule="evenodd" d="M40.2369 11.7419C42.2955 13.7618 42.2955 17.0307 40.2369 19.0429C38.1783 21.0629 34.8469 21.0629 32.7961 19.0429L18.6531 5.17324L22.4246 1.4726C24.4282 -0.501073 27.7596 -0.501073 29.8261 1.52657L40.2369 11.7419ZM35.774 10.277L28.3411 2.9837C27.1075 1.77328 25.1117 1.77328 23.8782 2.9837C22.6446 4.19411 22.6446 6.15237 23.8782 7.36279L30.5725 13.9314L32.804 11.7419C33.6447 10.9169 34.6897 10.4312 35.7819 10.2847L35.774 10.277ZM34.2811 17.5858C35.5147 18.7962 37.5105 18.7962 38.7441 17.5858C39.9776 16.3754 39.9776 14.4171 38.7441 13.2067C37.5105 11.9963 35.5147 11.9963 34.2811 13.2067L32.0497 15.3963L34.2811 17.5858Z" fill="white"/>
<path fill-rule="evenodd" clip-rule="evenodd" d="M29.8182 29.2661C27.7596 31.2783 24.4282 31.286 22.3774 29.2661L18.6531 25.6117L29.0718 15.3887L30.5568 16.8458L23.8624 23.4144C22.6289 24.6249 22.6289 26.5831 23.8624 27.7935C25.096 29.0039 27.0918 29.0039 28.3254 27.7935L35.7662 20.4925C37.3455 20.7161 39.0112 20.2303 40.2291 19.0353C40.2526 19.0122 33.2597 25.8738 29.8104 29.2584L29.8182 29.2661Z" fill="#6DC24B"/>
<path d="M50.8049 32.8121L51.6849 30.3296H52.3685L51.1899 33.3749H50.4278L49.2492 30.3296H49.9328L50.8128 32.8121H50.8049Z" fill="#6DC24B"/>
<path d="M53.2014 29.8131C53.1228 29.736 53.0835 29.6435 53.0835 29.5279C53.0835 29.4122 53.1228 29.3197 53.2014 29.2426C53.2799 29.1655 53.3742 29.127 53.4921 29.127C53.6099 29.127 53.7042 29.1655 53.7828 29.2426C53.8614 29.3197 53.9007 29.4122 53.9007 29.5279C53.9007 29.6435 53.8614 29.736 53.7828 29.8131C53.7042 29.8902 53.6099 29.9288 53.4921 29.9288C53.3742 29.9288 53.2799 29.8902 53.2014 29.8131ZM53.8142 30.3297V33.375H53.1699V30.3297H53.8142Z" fill="#6DC24B"/>
<path d="M56.1714 32.8121L57.0514 30.3296H57.735L56.5564 33.3749H55.7943L54.6157 30.3296H55.2993L56.1793 32.8121H56.1714Z" fill="#6DC24B"/>
<path d="M58.5757 29.8131C58.4972 29.736 58.4579 29.6435 58.4579 29.5279C58.4579 29.4122 58.4972 29.3197 58.5757 29.2426C58.6543 29.1655 58.7486 29.127 58.8664 29.127C58.9843 29.127 59.0786 29.1655 59.1572 29.2426C59.2357 29.3197 59.275 29.4122 59.275 29.5279C59.275 29.6435 59.2357 29.736 59.1572 29.8131C59.0786 29.8902 58.9843 29.9288 58.8664 29.9288C58.7486 29.9288 58.6543 29.8902 58.5757 29.8131ZM59.1807 30.3297V33.375H58.5364V30.3297H59.1807Z" fill="#6DC24B"/>
<path d="M64.7515 30.4301C64.9479 30.5303 65.0972 30.6768 65.2072 30.8695C65.3172 31.0623 65.3722 31.3013 65.3722 31.5788V33.3752H64.7358V31.6713C64.7358 31.4015 64.6651 31.1933 64.5315 31.0468C64.3901 30.9004 64.2015 30.831 63.9658 30.831C63.7301 30.831 63.5336 30.9004 63.3922 31.0468C63.2508 31.1933 63.1801 31.4015 63.1801 31.6713V33.3752H62.5436V31.6713C62.5436 31.4015 62.4729 31.1933 62.3393 31.0468C62.1979 30.9004 62.0093 30.831 61.7736 30.831C61.5379 30.831 61.3415 30.9004 61.2 31.0468C61.0586 31.1933 60.9879 31.4015 60.9879 31.6713V33.3752H60.3436V30.3298H60.9879V30.6768C61.09 30.5534 61.2236 30.4532 61.3886 30.3838C61.5536 30.3144 61.7186 30.2759 61.9072 30.2759C62.1586 30.2759 62.3786 30.3298 62.575 30.4301C62.7715 30.5303 62.9208 30.6845 63.0229 30.8772C63.1172 30.6922 63.2665 30.5457 63.4629 30.4378C63.6593 30.3298 63.8793 30.2759 64.1072 30.2759C64.3508 30.2759 64.5708 30.3221 64.7594 30.4224L64.7515 30.4301Z" fill="#6DC24B"/>
<path d="M67.0694 33.2287C66.8337 33.0976 66.6451 32.9126 66.5115 32.6736C66.378 32.4346 66.3072 32.157 66.3072 31.8487C66.3072 31.5403 66.378 31.2627 66.5115 31.0237C66.6451 30.7847 66.8415 30.5997 67.0772 30.4686C67.313 30.3376 67.588 30.2759 67.8787 30.2759C68.1694 30.2759 68.4444 30.3376 68.6801 30.4686C68.9237 30.5997 69.1123 30.7847 69.2458 31.0237C69.3873 31.2627 69.4501 31.5403 69.4501 31.8487C69.4501 32.157 69.3794 32.4346 69.238 32.6736C69.0966 32.9126 68.9001 33.0976 68.6566 33.2287C68.413 33.3597 68.138 33.4214 67.8473 33.4214C67.5565 33.4214 67.2894 33.3597 67.0537 33.2287H67.0694ZM68.3265 32.7661C68.468 32.689 68.5858 32.5734 68.6801 32.4192C68.7666 32.265 68.8137 32.0799 68.8137 31.8564C68.8137 31.6328 68.7744 31.4477 68.6801 31.2936C68.5937 31.1394 68.4837 31.0237 68.3344 30.9466C68.1851 30.8695 68.0358 30.831 67.8708 30.831C67.7058 30.831 67.5487 30.8695 67.4151 30.9466C67.2815 31.0237 67.1637 31.1394 67.0772 31.2936C66.9908 31.4477 66.9515 31.6328 66.9515 31.8564C66.9515 32.1802 67.038 32.4346 67.2108 32.6119C67.3837 32.7892 67.5958 32.8817 67.8551 32.8817C68.0201 32.8817 68.1773 32.8432 68.3187 32.7661H68.3265Z" fill="#6DC24B"/>
<path d="M70.8959 33.2977C70.6994 33.2129 70.5502 33.0972 70.4401 32.943C70.3301 32.7966 70.2673 32.6269 70.2594 32.4419H70.9194C70.9273 32.573 70.9902 32.6809 71.108 32.7657C71.2259 32.8505 71.3673 32.8968 71.5402 32.8968C71.713 32.8968 71.8623 32.8659 71.9566 32.7966C72.0587 32.7272 72.1059 32.6424 72.1059 32.5344C72.1059 32.4188 72.0509 32.334 71.9409 32.28C71.8309 32.226 71.658 32.1644 71.4144 32.095C71.1787 32.0333 70.9902 31.9716 70.8487 31.9099C70.7073 31.8483 70.5737 31.7635 70.4716 31.6401C70.3694 31.5168 70.3144 31.3548 70.3144 31.1621C70.3144 31.0002 70.3616 30.8537 70.4637 30.7149C70.558 30.5839 70.6994 30.4759 70.8802 30.3988C71.0609 30.3218 71.273 30.2832 71.5087 30.2832C71.8623 30.2832 72.1452 30.368 72.3573 30.5453C72.5695 30.7227 72.6873 30.9617 72.703 31.2623H72.0587C72.0509 31.1236 71.988 31.0156 71.8937 30.9385C71.7916 30.8614 71.658 30.8152 71.4852 30.8152C71.3123 30.8152 71.1866 30.846 71.1002 30.9077C71.0137 30.9694 70.9666 31.0542 70.9666 31.1544C70.9666 31.2315 70.998 31.3009 71.0609 31.3548C71.1237 31.4088 71.1944 31.4551 71.2809 31.4859C71.3673 31.5168 71.493 31.5553 71.6659 31.6016C71.8937 31.6632 72.0745 31.7172 72.2237 31.7789C72.3652 31.8406 72.4909 31.9254 72.6009 32.0487C72.7109 32.1721 72.758 32.3263 72.7659 32.519C72.7659 32.6886 72.7187 32.8505 72.6166 32.9816C72.5223 33.1204 72.3809 33.2283 72.2002 33.3054C72.0195 33.3825 71.8152 33.421 71.5716 33.421C71.328 33.421 71.108 33.3748 70.9194 33.29L70.8959 33.2977Z" fill="#6DC24B"/>
<path d="M75.5395 29.2891V33.3752H74.8952V29.2891H75.5395Z" fill="#6DC24B"/>
<path d="M77.2524 33.2287C77.0167 33.0976 76.8281 32.9126 76.6945 32.6736C76.5609 32.4346 76.4902 32.157 76.4902 31.8487C76.4902 31.5403 76.5609 31.2627 76.6945 31.0237C76.8281 30.7847 77.0245 30.5997 77.2602 30.4686C77.4959 30.3376 77.771 30.2759 78.0617 30.2759C78.3524 30.2759 78.6274 30.3376 78.8631 30.4686C79.1067 30.5997 79.2953 30.7847 79.4288 31.0237C79.5703 31.2627 79.6331 31.5403 79.6331 31.8487C79.6331 32.157 79.5624 32.4346 79.421 32.6736C79.2795 32.9126 79.0831 33.0976 78.8395 33.2287C78.596 33.3597 78.321 33.4214 78.0302 33.4214C77.7395 33.4214 77.4724 33.3597 77.2367 33.2287H77.2524ZM78.5095 32.7661C78.651 32.689 78.7688 32.5734 78.8631 32.4192C78.9495 32.265 78.9967 32.0799 78.9967 31.8564C78.9967 31.6328 78.9574 31.4477 78.8631 31.2936C78.7767 31.1394 78.6667 31.0237 78.5174 30.9466C78.3681 30.8695 78.2188 30.831 78.0538 30.831C77.8888 30.831 77.7317 30.8695 77.5981 30.9466C77.4645 31.0237 77.3467 31.1394 77.2602 31.2936C77.1738 31.4477 77.1345 31.6328 77.1345 31.8564C77.1345 32.1802 77.2209 32.4346 77.3938 32.6119C77.5667 32.7892 77.7788 32.8817 78.0381 32.8817C78.2031 32.8817 78.3602 32.8432 78.5017 32.7661H78.5095Z" fill="#6DC24B"/>
<path d="M81.731 31.0311C81.8646 30.7921 82.0374 30.6148 82.2574 30.4838C82.4774 30.3527 82.7289 30.291 83.0039 30.291C83.2475 30.291 83.4596 30.3373 83.6403 30.4375C83.8289 30.53 83.9703 30.6457 84.0725 30.7844V30.345H84.7168V34.832H84.0725V32.9431C83.9703 33.0819 83.821 33.1976 83.6325 33.2901C83.4439 33.3826 83.2239 33.4366 82.9803 33.4366C82.7132 33.4366 82.4696 33.3672 82.2496 33.2361C82.0296 33.105 81.8567 32.9123 81.7231 32.6733C81.5974 32.4343 81.5267 32.1568 81.5267 31.8561C81.5267 31.5554 81.5896 31.2779 81.7231 31.0466L81.731 31.0311ZM83.9467 31.3087C83.8603 31.1545 83.7425 31.0389 83.601 30.954C83.4596 30.877 83.3025 30.8307 83.1375 30.8307C82.9724 30.8307 82.8153 30.8692 82.6739 30.9463C82.5324 31.0234 82.4146 31.1391 82.3282 31.2933C82.2417 31.4475 82.1946 31.6248 82.1946 31.8407C82.1946 32.0565 82.2417 32.2339 82.3282 32.3958C82.4146 32.5577 82.5324 32.6733 82.6739 32.7581C82.8153 32.8429 82.9725 32.8815 83.1296 32.8815C83.2867 32.8815 83.4517 32.8429 83.5932 32.7581C83.7346 32.6733 83.8525 32.5577 83.9389 32.4035C84.0253 32.2493 84.0725 32.0642 84.0725 31.8561C84.0725 31.6479 84.0253 31.4629 83.9389 31.3087H83.9467Z" fill="#6DC24B"/>
<path d="M88.7004 30.3296V33.3749H88.0561V33.0126C87.9539 33.1359 87.8204 33.2361 87.6632 33.3055C87.4982 33.3749 87.3254 33.4135 87.1446 33.4135C86.9011 33.4135 86.6811 33.3672 86.4925 33.267C86.2961 33.1667 86.1468 33.0203 86.0368 32.8275C85.9268 32.6348 85.8718 32.3958 85.8718 32.1182V30.3296H86.5082V32.0257C86.5082 32.2956 86.5789 32.5037 86.7125 32.6502C86.8539 32.7967 87.0425 32.8661 87.2782 32.8661C87.5139 32.8661 87.7104 32.7967 87.8518 32.6502C87.9932 32.5037 88.0639 32.2956 88.0639 32.0257V30.3296H88.7082H88.7004Z" fill="#6DC24B"/>
<path d="M92.684 32.0874H90.319C90.3347 32.3341 90.429 32.5268 90.594 32.6733C90.759 32.8198 90.9633 32.8969 91.199 32.8969C91.5447 32.8969 91.7883 32.7581 91.9297 32.4728H92.6211C92.5269 32.7504 92.3619 32.9817 92.1104 33.159C91.8668 33.3363 91.5604 33.4288 91.199 33.4288C90.9004 33.4288 90.6411 33.3672 90.4054 33.2361C90.1697 33.105 89.989 32.92 89.8554 32.681C89.7218 32.442 89.659 32.1645 89.659 31.8561C89.659 31.5477 89.7218 31.2701 89.8554 31.0311C89.989 30.7921 90.1697 30.6071 90.4054 30.4838C90.6411 30.3527 90.9083 30.291 91.2147 30.291C91.5211 30.291 91.7647 30.3527 92.0004 30.476C92.2361 30.5994 92.409 30.7767 92.5347 31.0003C92.6604 31.2239 92.7233 31.486 92.7233 31.779C92.7233 31.8946 92.7233 31.9948 92.6997 32.0874H92.684ZM92.0397 31.5785C92.0397 31.3472 91.9533 31.1622 91.7883 31.0234C91.6233 30.8847 91.419 30.8153 91.1754 30.8153C90.9554 30.8153 90.7668 30.8847 90.6097 31.0234C90.4525 31.1622 90.3582 31.3472 90.3268 31.5862H92.0397V31.5785Z" fill="#6DC24B"/>
<path d="M94.7819 31.0311C94.9154 30.7921 95.0883 30.6147 95.3083 30.4837C95.5283 30.3526 95.7797 30.2909 96.0548 30.2909C96.259 30.2909 96.4555 30.3372 96.6519 30.422C96.8483 30.5068 97.0055 30.6224 97.1233 30.7689V29.2964H97.7676V33.3825H97.1233V32.9276C97.0212 33.0741 96.8719 33.1975 96.6833 33.29C96.4948 33.3825 96.2826 33.4365 96.0469 33.4365C95.7797 33.4365 95.5283 33.3671 95.3083 33.236C95.0883 33.105 94.9076 32.9122 94.7819 32.6732C94.6562 32.4342 94.5854 32.1567 94.5854 31.856C94.5854 31.5553 94.6483 31.2778 94.7819 31.0465V31.0311ZM96.9898 31.3086C96.9033 31.1544 96.7855 31.0388 96.644 30.954C96.5026 30.8769 96.3455 30.8306 96.1805 30.8306C96.0155 30.8306 95.8583 30.8692 95.7169 30.9463C95.5755 31.0234 95.4576 31.139 95.3712 31.2932C95.2847 31.4474 95.2376 31.6247 95.2376 31.8406C95.2376 32.0564 95.2847 32.2338 95.3712 32.3957C95.4576 32.5576 95.5755 32.6732 95.7169 32.758C95.8583 32.8428 96.0155 32.8814 96.1726 32.8814C96.3298 32.8814 96.4948 32.8428 96.6362 32.758C96.7776 32.6732 96.8955 32.5576 96.9819 32.4034C97.0683 32.2492 97.1155 32.0642 97.1155 31.856C97.1155 31.6478 97.0683 31.4628 96.9819 31.3086H96.9898Z" fill="#6DC24B"/>
<path d="M101.751 32.0874H99.3862C99.4019 32.3341 99.4962 32.5268 99.6612 32.6733C99.8262 32.8198 100.031 32.8969 100.266 32.8969C100.612 32.8969 100.856 32.7581 100.997 32.4728H101.688C101.594 32.7504 101.429 32.9817 101.178 33.159C100.934 33.3363 100.628 33.4288 100.266 33.4288C99.9677 33.4288 99.7084 33.3672 99.4726 33.2361C99.2369 33.105 99.0562 32.92 98.9226 32.681C98.7891 32.442 98.7262 32.1645 98.7262 31.8561C98.7262 31.5477 98.7891 31.2701 98.9226 31.0311C99.0562 30.7921 99.2369 30.6071 99.4726 30.4838C99.7084 30.3527 99.9755 30.291 100.282 30.291C100.588 30.291 100.832 30.3527 101.068 30.476C101.303 30.5994 101.476 30.7767 101.602 31.0003C101.728 31.2239 101.791 31.486 101.791 31.779C101.791 31.8946 101.791 31.9948 101.767 32.0874H101.751ZM101.107 31.5785C101.107 31.3472 101.021 31.1622 100.856 31.0234C100.691 30.8847 100.486 30.8153 100.243 30.8153C100.023 30.8153 99.8341 30.8847 99.6769 31.0234C99.5198 31.1622 99.4255 31.3472 99.3941 31.5862H101.107V31.5785Z" fill="#6DC24B"/>
<path d="M102.71 31.0233C102.843 30.7843 103.016 30.5993 103.244 30.4759C103.472 30.3449 103.731 30.2832 104.03 30.2832C104.407 30.2832 104.713 30.368 104.965 30.5453C105.208 30.7227 105.373 30.9694 105.46 31.2932H104.768C104.713 31.139 104.619 31.0233 104.501 30.9385C104.376 30.8537 104.218 30.8075 104.038 30.8075C103.778 30.8075 103.566 30.9 103.409 31.0773C103.252 31.2623 103.173 31.5167 103.173 31.8406C103.173 32.1644 103.252 32.4265 103.409 32.6115C103.566 32.7966 103.771 32.8891 104.038 32.8891C104.407 32.8891 104.658 32.7272 104.776 32.4111H105.468C105.381 32.7195 105.208 32.9662 104.965 33.1512C104.721 33.3362 104.407 33.4287 104.046 33.4287C103.747 33.4287 103.488 33.3671 103.26 33.236C103.032 33.1049 102.851 32.9199 102.726 32.6809C102.6 32.4419 102.529 32.1644 102.529 31.856C102.529 31.5476 102.592 31.27 102.726 31.031L102.71 31.0233Z" fill="#6DC24B"/>
<path d="M106.458 29.8131C106.379 29.736 106.34 29.6435 106.34 29.5279C106.34 29.4122 106.379 29.3197 106.458 29.2426C106.536 29.1655 106.631 29.127 106.748 29.127C106.866 29.127 106.961 29.1655 107.039 29.2426C107.118 29.3197 107.157 29.4122 107.157 29.5279C107.157 29.6435 107.118 29.736 107.039 29.8131C106.961 29.8902 106.866 29.9288 106.748 29.9288C106.631 29.9288 106.536 29.8902 106.458 29.8131ZM107.071 30.3297V33.375H106.426V30.3297H107.071Z" fill="#6DC24B"/>
<path d="M112.641 30.4301C112.838 30.5303 112.987 30.6768 113.097 30.8695C113.207 31.0623 113.262 31.3013 113.262 31.5788V33.3752H112.626V31.6713C112.626 31.4015 112.555 31.1933 112.421 31.0468C112.28 30.9004 112.091 30.831 111.856 30.831C111.62 30.831 111.424 30.9004 111.282 31.0468C111.141 31.1933 111.07 31.4015 111.07 31.6713V33.3752H110.434V31.6713C110.434 31.4015 110.363 31.1933 110.229 31.0468C110.088 30.9004 109.899 30.831 109.664 30.831C109.428 30.831 109.231 30.9004 109.09 31.0468C108.948 31.1933 108.878 31.4015 108.878 31.6713V33.3752H108.233V30.3298H108.878V30.6768C108.98 30.5534 109.113 30.4532 109.278 30.3838C109.443 30.3144 109.608 30.2759 109.797 30.2759C110.049 30.2759 110.268 30.3298 110.465 30.4301C110.661 30.5303 110.811 30.6845 110.913 30.8772C111.007 30.6922 111.156 30.5457 111.353 30.4378C111.549 30.3298 111.769 30.2759 111.997 30.2759C112.241 30.2759 112.461 30.3221 112.649 30.4224L112.641 30.4301Z" fill="#6DC24B"/>
<path d="M114.951 33.2287C114.716 33.0976 114.527 32.9126 114.394 32.6736C114.26 32.4346 114.189 32.157 114.189 31.8487C114.189 31.5403 114.26 31.2627 114.394 31.0237C114.527 30.7847 114.724 30.5997 114.959 30.4686C115.195 30.3376 115.47 30.2759 115.761 30.2759C116.051 30.2759 116.326 30.3376 116.562 30.4686C116.806 30.5997 116.994 30.7847 117.128 31.0237C117.269 31.2627 117.332 31.5403 117.332 31.8487C117.332 32.157 117.261 32.4346 117.12 32.6736C116.979 32.9126 116.782 33.0976 116.539 33.2287C116.295 33.3597 116.02 33.4214 115.729 33.4214C115.439 33.4214 115.171 33.3597 114.936 33.2287H114.951ZM116.209 32.7661C116.35 32.689 116.468 32.5734 116.562 32.4192C116.649 32.265 116.696 32.0799 116.696 31.8564C116.696 31.6328 116.656 31.4477 116.562 31.2936C116.476 31.1394 116.366 31.0237 116.216 30.9466C116.067 30.8695 115.918 30.831 115.753 30.831C115.588 30.831 115.431 30.8695 115.297 30.9466C115.164 31.0237 115.046 31.1394 114.959 31.2936C114.873 31.4477 114.834 31.6328 114.834 31.8564C114.834 32.1802 114.92 32.4346 115.093 32.6119C115.266 32.7892 115.478 32.8817 115.737 32.8817C115.902 32.8817 116.059 32.8432 116.201 32.7661H116.209Z" fill="#6DC24B"/>
<path d="M118.786 33.2977C118.589 33.2129 118.44 33.0972 118.33 32.943C118.22 32.7966 118.157 32.6269 118.149 32.4419H118.809C118.817 32.573 118.88 32.6809 118.998 32.7657C119.116 32.8505 119.257 32.8968 119.43 32.8968C119.603 32.8968 119.752 32.8659 119.846 32.7966C119.949 32.7272 119.996 32.6424 119.996 32.5344C119.996 32.4188 119.941 32.334 119.831 32.28C119.721 32.226 119.548 32.1644 119.304 32.095C119.069 32.0333 118.88 31.9716 118.739 31.9099C118.597 31.8483 118.464 31.7635 118.361 31.6401C118.259 31.5168 118.204 31.3548 118.204 31.1621C118.204 31.0002 118.251 30.8537 118.354 30.7149C118.448 30.5839 118.589 30.4759 118.77 30.3988C118.951 30.3218 119.163 30.2832 119.399 30.2832C119.752 30.2832 120.035 30.368 120.247 30.5453C120.459 30.7227 120.577 30.9617 120.593 31.2623H119.949C119.941 31.1236 119.878 31.0156 119.784 30.9385C119.681 30.8614 119.548 30.8152 119.375 30.8152C119.202 30.8152 119.076 30.846 118.99 30.9077C118.904 30.9694 118.856 31.0542 118.856 31.1544C118.856 31.2315 118.888 31.3009 118.951 31.3548C119.014 31.4088 119.084 31.4551 119.171 31.4859C119.257 31.5168 119.383 31.5553 119.556 31.6016C119.784 31.6632 119.964 31.7172 120.114 31.7789C120.255 31.8406 120.381 31.9254 120.491 32.0487C120.601 32.1721 120.648 32.3263 120.656 32.519C120.656 32.6886 120.609 32.8505 120.506 32.9816C120.412 33.1204 120.271 33.2283 120.09 33.3054C119.909 33.3825 119.705 33.421 119.461 33.421C119.218 33.421 118.998 33.3748 118.809 33.29L118.786 33.2977Z" fill="#6DC24B"/>
<path fill-rule="evenodd" clip-rule="evenodd" d="M142.962 25.7117C141.855 25.7117 140.951 25.519 140.26 25.1335C139.56 24.748 139.042 24.2237 138.712 23.5607C138.374 22.8977 138.209 22.1498 138.209 21.3249V19.6134C138.209 18.7884 138.374 18.0406 138.696 17.3776C139.026 16.7145 139.537 16.1903 140.244 15.8048C140.951 15.4193 141.839 15.2266 142.915 15.2266C143.599 15.2266 144.204 15.3037 144.73 15.4656C145.257 15.6198 145.665 15.8279 145.972 16.09C146.278 16.3445 146.428 16.622 146.428 16.9073C146.428 17.0615 146.38 17.2465 146.286 17.4624L145.634 18.5648L144.817 18.1023C144.652 18.002 144.432 17.9018 144.172 17.8016C143.913 17.7014 143.56 17.6551 143.127 17.6551C142.389 17.6551 141.847 17.8324 141.509 18.1794C141.171 18.5263 141.006 19.012 141.006 19.6211V21.3326C141.006 21.9494 141.171 22.4274 141.509 22.782C141.847 23.129 142.389 23.3063 143.143 23.3063C143.591 23.3063 143.952 23.26 144.188 23.1367L144.809 22.8129L145.752 22.2732L146.404 23.3988C146.789 24.2469 146.286 24.7557 145.571 25.1412C145.343 25.2645 145.084 25.3725 144.785 25.465C144.243 25.6423 143.622 25.7194 142.939 25.7194L142.962 25.7117Z" fill="white"/>
<path fill-rule="evenodd" clip-rule="evenodd" d="M135.255 25.6193H133.856V24.7481V16.2058C133.856 15.9513 133.989 15.7432 134.249 15.5813C134.508 15.4271 134.846 15.3423 135.255 15.3423H136.677V24.7327C136.677 24.9485 136.535 25.149 136.26 25.334C135.985 25.519 135.647 25.6116 135.255 25.6116V25.6193Z" fill="white"/>
<path fill-rule="evenodd" clip-rule="evenodd" d="M108.673 25.6194H107.275V24.7482V11.0559C107.275 10.8014 107.408 10.5933 107.668 10.4314C107.927 10.2772 108.265 10.1924 108.673 10.1924H110.096V24.7328C110.096 24.9487 109.954 25.1491 109.679 25.3342C109.404 25.5192 109.066 25.6117 108.673 25.6117V25.6194Z" fill="white"/>
<path fill-rule="evenodd" clip-rule="evenodd" d="M87.4982 19.5285H90.6883C90.9318 19.5285 91.1047 19.4899 91.199 19.4128C91.2933 19.3357 91.3404 19.1815 91.3404 18.9502C91.3404 18.6187 91.254 18.3257 91.0811 18.0713C90.9083 17.8169 90.6725 17.6165 90.3818 17.47C90.0911 17.3235 89.769 17.2541 89.4232 17.2541C89.0775 17.2541 88.7789 17.3235 88.4882 17.4546C88.1975 17.5933 87.9618 17.7861 87.7811 18.0328C87.6004 18.2795 87.5061 18.5802 87.5061 18.9194V19.5207L87.4982 19.5285ZM89.9654 25.7116C88.9282 25.7116 88.0168 25.5266 87.2232 25.1642C86.4296 24.8019 85.8089 24.2853 85.3532 23.6223C84.9053 22.9593 84.6775 22.1883 84.6775 21.3171V19.4976C84.6775 18.7266 84.8896 18.0174 85.3218 17.3697C85.7539 16.7221 86.3275 16.1979 87.0425 15.8047C87.7654 15.4115 88.5668 15.2188 89.4547 15.2188C90.2718 15.2188 91.0183 15.3884 91.694 15.7353C92.3697 16.0745 92.9197 16.5525 93.344 17.1462C93.7683 17.7475 93.9804 18.4414 93.9804 19.2432C93.9804 19.86 93.8783 20.2994 93.674 20.5615C93.4697 20.8237 93.2104 20.9933 92.8961 21.055C92.5819 21.1166 92.2597 21.1475 91.9218 21.1475H87.4904V21.4713C87.4904 22.0881 87.7261 22.5815 88.1975 22.9593C88.6689 23.337 89.2818 23.5298 90.044 23.5298C90.5233 23.5298 90.924 23.4604 91.2461 23.3139C91.5683 23.1674 91.8433 23.0363 92.079 22.9053C92.3147 22.7742 92.5268 22.7125 92.7311 22.7125C92.9511 22.7125 93.1397 22.7819 93.2969 22.9284C93.4147 23.0286 93.509 23.1443 93.5876 23.2754L94.1926 24.3007L92.8097 25.0794C92.574 25.2028 92.3068 25.3184 92.0004 25.4263C91.4268 25.6191 90.7433 25.7193 89.9575 25.7193L89.9654 25.7116Z" fill="white"/>
<path fill-rule="evenodd" clip-rule="evenodd" d="M81.6917 25.6193C80.3796 25.6193 79.3817 25.3418 78.6903 24.7867C77.9988 24.2316 77.6531 23.3527 77.6531 22.15V10.8091H79.0517C79.3974 10.8091 79.7274 10.8862 80.026 11.0481C80.3246 11.2023 80.4738 11.4104 80.4738 11.6726V15.3578H83.766V16.2907C83.766 16.2907 83.766 16.3446 83.766 16.3678C83.766 16.6222 83.7032 16.8535 83.5775 17.0616C83.4517 17.2698 83.2789 17.37 83.0432 17.37H80.466V22.1577C80.466 22.574 80.5603 22.867 80.741 23.0366C80.9217 23.2062 81.236 23.291 81.6917 23.291H82.6032H83.7425V24.4475V24.5014C83.7346 24.779 83.6325 25.0334 83.4517 25.2647C83.2553 25.5037 82.9567 25.6271 82.5482 25.6271H81.6996L81.6917 25.6193Z" fill="white"/>
<path fill-rule="evenodd" clip-rule="evenodd" d="M61.8129 25.7119C60.9407 25.7119 60.1393 25.5114 59.4243 25.1028C58.7014 24.6942 58.1278 24.1622 57.7036 23.4992C57.2714 22.8362 57.0593 22.1269 57.0593 21.3713V16.229C57.0593 16.0131 57.2007 15.8127 57.4836 15.6276C57.7664 15.4426 58.0964 15.3501 58.4736 15.3501H59.8722V16.229V21.3713C59.8722 21.7029 59.9586 22.0035 60.1314 22.2888C60.3043 22.5741 60.54 22.8131 60.8307 23.0058C61.1215 23.1985 61.4436 23.2988 61.7893 23.2988C62.135 23.2988 62.4808 23.2062 62.7636 23.0212C63.0465 22.8362 63.2743 22.5895 63.4472 22.2965C63.6201 21.9958 63.7065 21.6874 63.7065 21.3791V16.2213C63.7065 15.99 63.8479 15.7895 64.1308 15.6199C64.4136 15.4503 64.7358 15.3655 65.1051 15.3655H66.5272V21.3868C66.5272 22.1577 66.3151 22.8747 65.8829 23.5378C65.4508 24.2008 64.8772 24.7328 64.1622 25.1337C63.4393 25.5346 62.6615 25.735 61.8129 25.735V25.7119Z" fill="white"/>
<path fill-rule="evenodd" clip-rule="evenodd" d="M135.255 13.5074H133.856V12.6285V11.6648C133.856 11.4103 133.989 11.2022 134.249 11.0403C134.508 10.8861 134.846 10.8013 135.255 10.8013H136.677V11.657V12.6208C136.677 12.8289 136.535 13.0371 136.26 13.2221C135.985 13.4071 135.647 13.4997 135.255 13.4997V13.5074Z" fill="white"/>
<path fill-rule="evenodd" clip-rule="evenodd" d="M72.1609 25.7115C71.4302 25.7115 70.7701 25.619 70.1651 25.4417C69.7487 25.3183 69.3951 25.1718 69.0966 24.9945L67.808 24.2621L68.4523 23.1673C68.5151 23.0594 68.5937 22.9514 68.6801 22.8589C68.8216 22.7124 68.9787 22.6431 69.1751 22.6431C69.3794 22.6431 69.5916 22.7279 69.8194 22.8898C70.0473 23.0517 70.3301 23.2136 70.668 23.3678C71.0137 23.522 71.4852 23.6068 72.098 23.6068C72.7502 23.6068 73.1823 23.5065 73.3945 23.3061C73.6066 23.1056 73.7088 22.8975 73.7088 22.6816C73.7088 22.3655 73.583 22.1265 73.3237 21.9569C73.0723 21.7873 72.7423 21.6408 72.3495 21.5252C71.9566 21.4095 71.5402 21.2939 71.0923 21.1705C70.6523 21.0472 70.228 20.8853 69.8351 20.6771C69.4423 20.4689 69.1201 20.1837 68.8766 19.8213C68.6251 19.459 68.5073 18.981 68.5073 18.395C68.5073 17.8785 68.633 17.3851 68.8766 16.8994C69.1201 16.4136 69.5287 16.0127 70.1023 15.6889C70.668 15.3651 71.438 15.2109 72.4123 15.2109C73.0095 15.2109 73.5752 15.2726 74.1016 15.396C74.5573 15.5039 74.9423 15.635 75.2566 15.8123L76.2309 16.3674L75.6416 17.3696C75.5788 17.4776 75.5002 17.5855 75.4138 17.678C75.2645 17.8476 75.0759 17.9324 74.8559 17.9324C74.6988 17.9324 74.5023 17.8785 74.2745 17.7705C74.0466 17.6626 73.7873 17.5624 73.4966 17.4622C73.2059 17.3619 72.8602 17.3157 72.4516 17.3157C72.0902 17.3157 71.7994 17.3696 71.5794 17.4622C71.3594 17.5624 71.2023 17.6857 71.1001 17.8245C70.998 17.971 70.9509 18.1175 70.9509 18.2717C70.9509 18.5261 71.0766 18.7265 71.3202 18.873C71.5637 19.0118 71.8937 19.1352 72.2945 19.2354C72.6952 19.3356 73.1195 19.4435 73.5595 19.5669C73.9995 19.6903 74.4238 19.8676 74.8245 20.0989C75.2252 20.3379 75.5474 20.6463 75.7988 21.0317C76.0424 21.4172 76.1681 21.9338 76.1681 22.5737C76.1681 23.5142 75.8224 24.2698 75.1309 24.8403C74.4395 25.4108 73.4495 25.6961 72.153 25.6961L72.1609 25.7115Z" fill="white"/>
<path fill-rule="evenodd" clip-rule="evenodd" d="M97.0605 25.619H95.6619V24.7478V16.2055C95.6619 15.9511 95.7955 15.7429 96.0547 15.581C96.314 15.4268 96.6519 15.342 97.0605 15.342H98.3019V16.8377C98.5219 16.4214 98.8834 16.0513 99.3784 15.7121C99.8812 15.3805 100.494 15.2109 101.225 15.2109C101.908 15.2109 102.537 15.4037 103.103 15.7969C103.668 16.1901 104.124 16.7143 104.47 17.3696C104.808 18.025 104.981 18.7574 104.981 19.5515V24.7247C104.981 25.0099 104.839 25.2258 104.541 25.38C104.25 25.5265 103.92 25.6036 103.558 25.6036H102.16V19.5515C102.16 19.22 102.073 18.9193 101.908 18.634C101.743 18.3488 101.516 18.1098 101.225 17.917C100.934 17.7243 100.612 17.6241 100.266 17.6241C99.9755 17.6241 99.6926 17.7012 99.4176 17.8631C99.1426 18.0173 98.9148 18.2408 98.7419 18.5261C98.5691 18.8114 98.4826 19.1506 98.4826 19.5515V24.7247C98.4826 24.9405 98.3412 25.141 98.0662 25.326C97.7912 25.5111 97.4533 25.6036 97.0605 25.6036V25.619Z" fill="white"/>
<path fill-rule="evenodd" clip-rule="evenodd" d="M51.4413 25.7115C50.7106 25.7115 50.0506 25.619 49.4456 25.4417C49.0292 25.3183 48.6756 25.1718 48.377 24.9945L47.0884 24.2621L47.7327 23.1673C47.7956 23.0594 47.8742 22.9514 47.9606 22.8589C48.102 22.7124 48.2592 22.6431 48.4477 22.6431C48.652 22.6431 48.8642 22.7279 49.092 22.8898C49.3199 23.0517 49.6028 23.2136 49.9406 23.3678C50.2863 23.522 50.7578 23.6068 51.3706 23.6068C52.0228 23.6068 52.4549 23.5065 52.6671 23.3061C52.8792 23.1056 52.9814 22.8975 52.9814 22.6816C52.9814 22.3655 52.8556 22.1265 52.5964 21.9569C52.3449 21.7873 52.0149 21.6408 51.6221 21.5252C51.2292 21.4095 50.8128 21.2939 50.3649 21.1705C49.9249 21.0472 49.5006 20.8853 49.1077 20.6771C48.7149 20.4689 48.3927 20.1837 48.1492 19.8213C47.9056 19.459 47.7799 18.981 47.7799 18.395C47.7799 17.8785 47.9056 17.3851 48.1492 16.8994C48.4006 16.4136 48.8013 16.0127 49.3749 15.6889C49.9406 15.3651 50.7106 15.2109 51.6849 15.2109C52.2821 15.2109 52.8478 15.2726 53.3742 15.396C53.8299 15.5039 54.215 15.635 54.5292 15.8123L55.5035 16.3674L54.9142 17.3696C54.8514 17.4776 54.7728 17.5855 54.6864 17.678C54.5371 17.8476 54.3485 17.9324 54.1285 17.9324C53.9714 17.9324 53.7749 17.8785 53.5471 17.7705C53.3192 17.6626 53.0599 17.5624 52.7692 17.4622C52.4785 17.3619 52.1249 17.3157 51.7242 17.3157C51.3628 17.3157 51.0721 17.3696 50.8521 17.4622C50.632 17.5624 50.4749 17.6857 50.3728 17.8245C50.2706 17.971 50.2235 18.1175 50.2235 18.2717C50.2235 18.5261 50.3492 18.7265 50.5928 18.873C50.8363 19.0118 51.1663 19.1352 51.5671 19.2354C51.9678 19.3356 52.3921 19.4435 52.8321 19.5669C53.2799 19.6903 53.6964 19.8676 54.0971 20.0989C54.4978 20.3379 54.82 20.6463 55.0714 21.0317C55.315 21.4172 55.4407 21.9338 55.4407 22.5737C55.4407 23.5142 55.095 24.2698 54.4035 24.8403C53.7121 25.4108 52.7221 25.6961 51.4256 25.6961L51.4413 25.7115Z" fill="white"/>
<path fill-rule="evenodd" clip-rule="evenodd" d="M129.369 27.5389L129.338 25.4341C128.741 25.704 128.097 25.835 127.421 25.835C126.58 25.835 125.802 25.6346 125.087 25.226C124.372 24.8174 123.799 24.2777 123.366 23.6069C122.926 22.9362 122.714 22.2115 122.714 21.4405V19.6827C122.714 18.9118 122.927 18.1948 123.351 17.5317C123.775 16.8687 124.341 16.3367 125.064 15.9358C125.787 15.5349 126.572 15.3345 127.429 15.3345H132.167V21.5253L132.19 27.5312V28.4101C132.19 29.1656 131.97 29.8826 131.538 30.5534C131.098 31.2241 130.524 31.7638 129.802 32.1801C129.079 32.5964 128.301 32.8046 127.452 32.8046C126.604 32.8046 125.826 32.6041 125.119 32.1955C124.404 31.7869 123.83 31.2472 123.398 30.5765C122.958 29.9057 122.746 29.181 122.746 28.4101V27.5312H124.066C124.82 27.5312 125.457 28.0477 125.598 28.7724C125.637 28.9729 125.708 29.1733 125.81 29.3661C125.975 29.6744 126.203 29.9212 126.502 30.1062C126.792 30.2912 127.114 30.3837 127.46 30.3837C127.806 30.3837 128.128 30.2912 128.419 30.1062C128.709 29.9212 128.945 29.6744 129.118 29.3661C129.291 29.0577 129.377 28.7416 129.377 28.4101V27.5312L129.369 27.5389ZM127.421 23.4142C127.774 23.4142 128.089 23.3217 128.379 23.1367C128.67 22.9516 128.906 22.7049 129.079 22.3965C129.252 22.0881 129.338 21.772 129.338 21.4405V19.6827C129.338 19.3512 129.252 19.0505 129.079 18.7653C128.906 18.48 128.678 18.241 128.395 18.0483C128.112 17.8555 127.79 17.7553 127.421 17.7553C127.052 17.7553 126.753 17.8478 126.462 18.0329C126.172 18.2179 125.944 18.4569 125.771 18.7499C125.606 19.0428 125.519 19.3512 125.519 19.6827V21.4405C125.519 21.772 125.606 22.0881 125.771 22.3965C125.936 22.7049 126.164 22.9516 126.462 23.1367C126.753 23.3217 127.075 23.4142 127.421 23.4142Z" fill="white"/>
<path fill-rule="evenodd" clip-rule="evenodd" d="M116.79 23.2907C117.136 23.2907 117.458 23.1982 117.749 23.0131C118.039 22.8281 118.275 22.5814 118.448 22.273C118.621 21.9646 118.707 21.6485 118.707 21.317V19.5592C118.707 19.2277 118.621 18.927 118.448 18.6417C118.275 18.3565 118.047 18.1175 117.764 17.9247C117.481 17.732 117.159 17.6395 116.79 17.6395C116.421 17.6395 116.122 17.732 115.831 17.917C115.541 18.1021 115.313 18.3411 115.14 18.634C114.975 18.927 114.889 19.2354 114.889 19.5669V21.3247C114.889 21.6562 114.975 21.9723 115.14 22.2807C115.305 22.5891 115.533 22.8358 115.831 23.0208C116.122 23.2059 116.444 23.2984 116.79 23.2984V23.2907ZM116.79 25.7115C115.949 25.7115 115.171 25.5111 114.456 25.1024C113.741 24.6938 113.168 24.1541 112.736 23.4834C112.296 22.8127 112.084 22.088 112.084 21.317V19.5592C112.084 18.7882 112.296 18.0712 112.72 17.4082C113.144 16.7452 113.71 16.2132 114.433 15.8123C115.156 15.4114 115.941 15.2109 116.798 15.2109C117.654 15.2109 118.448 15.4037 119.163 15.7969C119.886 16.1901 120.459 16.7143 120.884 17.3696C121.316 18.025 121.528 18.7574 121.528 19.5515V21.3093C121.528 22.0648 121.308 22.7818 120.876 23.4526C120.436 24.1233 119.862 24.663 119.139 25.0793C118.416 25.4956 117.639 25.7038 116.79 25.7038V25.7115Z" fill="white"/>
</g>
<defs>
<clipPath id="clip0_128_49">
<rect width="146.553" height="41" fill="white"/>
</clipPath>
</defs>
</svg>
