<svg width="35" height="35" viewBox="0 0 35 35" fill="none" xmlns="http://www.w3.org/2000/svg">
<g clip-path="url(#clip0_2_255)">
<path d="M16.7391 0H18.1848C18.227 0.00792184 18.2693 0.0224452 18.3115 0.0250858C19.587 0.0831793 20.8413 0.271983 22.0718 0.609981C25.0847 1.43649 27.6963 2.95485 29.9052 5.16372C31.3284 6.58701 32.4705 8.21099 33.3314 10.0317C34.2186 11.9078 34.7586 13.8791 34.9276 15.9493C34.9487 16.2134 34.9751 16.4761 35.0002 16.7388V18.1846C34.9883 18.2717 34.9738 18.3575 34.9659 18.4447C34.9368 18.8038 34.9223 19.1656 34.8801 19.5234C34.6609 21.3705 34.1645 23.1423 33.3762 24.8284C32.155 27.4399 30.4003 29.6264 28.1135 31.3824C26.3588 32.7304 24.418 33.7101 22.2896 34.3227C21.2096 34.6329 20.1124 34.8363 18.9928 34.9287C18.7235 34.9511 18.4541 34.9776 18.1848 35.0013H16.7391C16.6968 34.9921 16.6546 34.9802 16.6123 34.9749C15.9838 34.9089 15.3514 34.8653 14.7269 34.7742C12.6963 34.4772 10.7911 33.8012 9.00207 32.803C6.9754 31.6728 5.24316 30.1954 3.79742 28.3773C2.45203 26.6834 1.45784 24.8059 0.805608 22.7449C0.417438 21.517 0.169221 20.2614 0.0701979 18.9754C0.0503933 18.7114 0.0226669 18.4486 -0.00109863 18.1859V16.7402C0.0068232 16.6979 0.0213466 16.6557 0.0226669 16.6134C0.0649167 15.5862 0.198268 14.5709 0.434602 13.5727C1.26904 10.037 3.02504 7.03459 5.69866 4.57486C7.16948 3.22155 8.83175 2.1587 10.6709 1.37972C12.2408 0.714286 13.8727 0.282546 15.5706 0.112226C15.9588 0.0739372 16.3483 0.0396092 16.7364 0.00264061L16.7391 0ZM27.4573 12.2406C27.4058 12.2736 27.3688 12.2947 27.3345 12.3198C25.3593 13.7814 23.3842 15.2443 21.4103 16.7072C20.1587 17.634 18.907 18.5622 17.658 19.493C17.5352 19.5841 17.4494 19.6211 17.3028 19.5102C16.3417 18.7853 15.3725 18.0737 14.4048 17.3581C12.2777 15.7816 10.1507 14.2052 8.02372 12.63C7.84548 12.498 7.66328 12.3713 7.47447 12.2366V23.9979H27.4573V12.2406ZM27.4533 11.0602H7.48372C10.836 13.5437 14.1513 15.9981 17.4692 18.4566C20.7937 15.9942 24.1051 13.5411 27.4533 11.0602Z" fill="#1E1E1E"/>
</g>
<defs>
<clipPath id="clip0_2_255">
<rect width="35" height="35" fill="white"/>
</clipPath>
</defs>
</svg>
