<svg width="77" height="75" viewBox="0 0 77 75" fill="none" xmlns="http://www.w3.org/2000/svg">
<path fill-rule="evenodd" clip-rule="evenodd" d="M3.03414 40.1795C-0.731432 43.8744 -0.731432 49.8538 3.03414 53.5345C6.79971 57.2294 12.8936 57.2294 16.6448 53.5345L42.5151 28.1501L35.6164 21.3809C31.9514 17.7707 25.8575 17.7707 22.0776 21.4796L3.03414 40.1795ZM11.1977 37.5141L24.794 24.1732C27.0504 21.9591 30.701 21.9591 32.9575 24.1732C35.214 26.3873 35.214 29.9693 32.9575 32.1834L20.7122 44.1987L16.6304 40.1936C15.0926 38.6846 13.1811 37.7962 11.1833 37.5282L11.1977 37.5141ZM13.9284 50.8692C11.672 53.0833 8.02136 53.0833 5.7649 50.8692C3.50843 48.6551 3.50843 45.0731 5.7649 42.859C8.02136 40.6449 11.672 40.6449 13.9284 42.859L18.0102 46.8641L13.9284 50.8692Z" fill="white"/>
<path fill-rule="evenodd" clip-rule="evenodd" d="M22.0919 72.2341C25.8431 75.9149 31.9514 75.929 35.7026 72.2341L42.5151 65.5496L23.4573 46.8497L20.7409 49.5151L32.9862 61.5304C35.2427 63.7445 35.2427 67.3265 32.9862 69.5406C30.7297 71.7547 27.0791 71.7547 24.8227 69.5406L11.212 56.1855C8.32315 56.5945 5.2762 55.7061 3.04848 53.5202C3.00536 53.4779 15.7968 66.0291 22.1063 72.22L22.0919 72.2341Z" fill="#6DC24B"/>
<path fill-rule="evenodd" clip-rule="evenodd" d="M73.8182 21.4799C77.5838 25.1748 77.5838 31.1542 73.8182 34.835C70.0526 38.5298 63.9587 38.5298 60.2075 34.835L34.3372 9.46465L41.2359 2.69546C44.9009 -0.914773 50.9948 -0.914773 54.7748 2.79418L73.8182 21.4799ZM65.6547 18.8005L52.0584 5.45954C49.8019 3.24546 46.1513 3.24546 43.8948 5.45954C41.6384 7.67363 41.6384 11.2557 43.8948 13.4697L56.1401 25.4851L60.2219 21.4799C61.7597 19.971 63.6713 19.0825 65.669 18.8146L65.6547 18.8005ZM62.9239 32.1696C65.1804 34.3837 68.831 34.3837 71.0874 32.1696C73.3439 29.9555 73.3439 26.3735 71.0874 24.1594C68.831 21.9453 65.1804 21.9453 62.9239 24.1594L58.8421 28.1645L62.9239 32.1696Z" fill="white"/>
<path fill-rule="evenodd" clip-rule="evenodd" d="M54.7604 53.5347C50.9948 57.2155 44.9009 57.2296 41.1497 53.5347L34.3372 46.8502L53.395 28.1503L56.1114 30.8157L43.8661 42.831C41.6096 45.0451 41.6096 48.6271 43.8661 50.8412C46.1226 53.0553 49.7732 53.0553 52.0296 50.8412L65.6403 37.4861C68.5291 37.8951 71.5761 37.0067 73.8038 34.8208C73.8469 34.7785 61.0555 47.3297 54.746 53.5206L54.7604 53.5347Z" fill="#6DC24B"/>
</svg>
