<svg width="168" height="47" viewBox="0 0 168 47" fill="none" xmlns="http://www.w3.org/2000/svg">
<g clip-path="url(#clip0_2_183)">
<path fill-rule="evenodd" clip-rule="evenodd" d="M1.76542 25.1791C-0.594434 27.4947 -0.594434 31.2419 1.76542 33.5486C4.12527 35.8642 7.94428 35.8642 10.2951 33.5486L26.5079 17.6404L22.1845 13.3982C19.8877 11.1357 16.0687 11.1357 13.6998 13.4601L1.76542 25.1791ZM6.88144 23.5088L15.4021 15.1481C16.8162 13.7606 19.104 13.7606 20.5182 15.1481C21.9323 16.5357 21.9323 18.7805 20.5182 20.168L12.8441 27.6979L10.2861 25.188C9.32236 24.2423 8.12442 23.6855 6.87243 23.5176L6.88144 23.5088ZM8.59279 31.8783C7.17867 33.2658 4.89088 33.2658 3.47676 31.8783C2.06265 30.4907 2.06265 28.2459 3.47676 26.8583C4.89088 25.4708 7.17867 25.4708 8.59279 26.8583L11.1508 29.3683L8.59279 31.8783Z" fill="#002E3E"/>
<path fill-rule="evenodd" clip-rule="evenodd" d="M13.7088 45.2677C16.0596 47.5744 19.8876 47.5833 22.2385 45.2677L26.5078 41.0786L14.5644 29.3595L12.8621 31.0299L20.5361 38.5598C21.9502 39.9473 21.9502 42.1921 20.5361 43.5797C19.122 44.9672 16.8342 44.9672 15.4201 43.5797L6.89041 35.2102C5.07999 35.4665 3.17049 34.9097 1.77439 33.5398C1.74737 33.5133 9.76367 41.3791 13.7178 45.2589L13.7088 45.2677Z" fill="#6DC24B"/>
<path fill-rule="evenodd" clip-rule="evenodd" d="M46.1252 13.4601C48.4851 15.7756 48.4851 19.5229 46.1252 21.8296C43.7654 24.1451 39.9464 24.1451 37.5955 21.8296L21.3828 5.9302L25.7062 1.688C28.003 -0.574502 31.822 -0.574502 34.1909 1.74987L46.1252 13.4601ZM41.0092 11.7809L32.4885 3.42023C31.0744 2.03268 28.7866 2.03268 27.3725 3.42023C25.9584 4.80779 25.9584 7.05261 27.3725 8.44017L35.0465 15.9701L37.6045 13.4601C38.5683 12.5144 39.7662 11.9577 41.0182 11.7897L41.0092 11.7809ZM39.2979 20.1592C40.712 21.5468 42.9998 21.5468 44.4139 20.1592C45.828 18.7717 45.828 16.5269 44.4139 15.1393C42.9998 13.7517 40.712 13.7517 39.2979 15.1393L36.7399 17.6493L39.2979 20.1592Z" fill="#002E3E"/>
<path fill-rule="evenodd" clip-rule="evenodd" d="M34.1819 33.5487C31.822 35.8554 28.003 35.8643 25.6522 33.5487L21.3828 29.3596L33.3262 17.6405L35.0285 19.3109L27.3545 26.8408C25.9404 28.2283 25.9404 30.4731 27.3545 31.8607C28.7686 33.2483 31.0564 33.2483 32.4705 31.8607L41.0002 23.4912C42.8106 23.7475 44.7201 23.1907 46.1162 21.8208C46.1433 21.7943 38.127 29.6601 34.1728 33.5399L34.1819 33.5487Z" fill="#6DC24B"/>
<path d="M58.2398 37.6141L59.2486 34.7683H60.0322L58.6811 38.2593H57.8074L56.4564 34.7683H57.24L58.2488 37.6141H58.2398Z" fill="#6DC24B"/>
<path d="M60.9869 34.1762C60.8968 34.0878 60.8518 33.9818 60.8518 33.8492C60.8518 33.7167 60.8968 33.6106 60.9869 33.5222C61.077 33.4338 61.1851 33.3896 61.3202 33.3896C61.4553 33.3896 61.5634 33.4338 61.6534 33.5222C61.7435 33.6106 61.7885 33.7167 61.7885 33.8492C61.7885 33.9818 61.7435 34.0878 61.6534 34.1762C61.5634 34.2646 61.4553 34.3088 61.3202 34.3088C61.1851 34.3088 61.077 34.2646 60.9869 34.1762ZM61.6895 34.7684V38.2593H60.9509V34.7684H61.6895Z" fill="#6DC24B"/>
<path d="M64.3916 37.6141L65.4004 34.7683H66.184L64.8329 38.2593H63.9593L62.6082 34.7683H63.3918L64.4006 37.6141H64.3916Z" fill="#6DC24B"/>
<path d="M67.1478 34.1762C67.0577 34.0878 67.0127 33.9818 67.0127 33.8492C67.0127 33.7167 67.0577 33.6106 67.1478 33.5222C67.2378 33.4338 67.3459 33.3896 67.481 33.3896C67.6161 33.3896 67.7242 33.4338 67.8143 33.5222C67.9044 33.6106 67.9494 33.7167 67.9494 33.8492C67.9494 33.9818 67.9044 34.0878 67.8143 34.1762C67.7242 34.2646 67.6161 34.3088 67.481 34.3088C67.3459 34.3088 67.2378 34.2646 67.1478 34.1762ZM67.8413 34.7684V38.2593H67.1027V34.7684H67.8413Z" fill="#6DC24B"/>
<path d="M74.2273 34.8833C74.4525 34.9982 74.6236 35.1661 74.7497 35.3871C74.8758 35.608 74.9389 35.882 74.9389 36.2001V38.2594H74.2093V36.3062C74.2093 35.9969 74.1282 35.7583 73.9751 35.5903C73.813 35.4224 73.5968 35.3429 73.3266 35.3429C73.0564 35.3429 72.8312 35.4224 72.6691 35.5903C72.507 35.7583 72.4259 35.9969 72.4259 36.3062V38.2594H71.6963V36.3062C71.6963 35.9969 71.6153 35.7583 71.4621 35.5903C71.3 35.4224 71.0839 35.3429 70.8136 35.3429C70.5434 35.3429 70.3182 35.4224 70.1561 35.5903C69.994 35.7583 69.9129 35.9969 69.9129 36.3062V38.2594H69.1744V34.7684H69.9129V35.1661C70.03 35.0247 70.1831 34.9098 70.3723 34.8303C70.5614 34.7507 70.7506 34.7065 70.9668 34.7065C71.255 34.7065 71.5072 34.7684 71.7324 34.8833C71.9575 34.9982 72.1287 35.175 72.2458 35.3959C72.3538 35.1838 72.525 35.0159 72.7502 34.8921C72.9753 34.7684 73.2275 34.7065 73.4887 34.7065C73.768 34.7065 74.0202 34.7596 74.2363 34.8745L74.2273 34.8833Z" fill="#6DC24B"/>
<path d="M76.8844 38.0915C76.6142 37.9412 76.398 37.7291 76.2449 37.4551C76.0918 37.1812 76.0107 36.863 76.0107 36.5095C76.0107 36.156 76.0918 35.8378 76.2449 35.5638C76.398 35.2898 76.6232 35.0777 76.8934 34.9275C77.1636 34.7772 77.4789 34.7065 77.8121 34.7065C78.1454 34.7065 78.4607 34.7772 78.7309 34.9275C79.0101 35.0777 79.2263 35.2898 79.3794 35.5638C79.5415 35.8378 79.6136 36.156 79.6136 36.5095C79.6136 36.863 79.5325 37.1812 79.3704 37.4551C79.2082 37.7291 78.9831 37.9412 78.7038 38.0915C78.4246 38.2417 78.1094 38.3124 77.7761 38.3124C77.4429 38.3124 77.1366 38.2417 76.8664 38.0915H76.8844ZM78.3255 37.5612C78.4877 37.4728 78.6228 37.3402 78.7309 37.1635C78.8299 36.9867 78.884 36.7746 78.884 36.5183C78.884 36.262 78.839 36.0499 78.7309 35.8731C78.6318 35.6964 78.5057 35.5638 78.3346 35.4754C78.1634 35.3871 77.9923 35.3429 77.8031 35.3429C77.614 35.3429 77.4338 35.3871 77.2807 35.4754C77.1276 35.5638 76.9925 35.6964 76.8934 35.8731C76.7943 36.0499 76.7493 36.262 76.7493 36.5183C76.7493 36.8895 76.8484 37.1812 77.0465 37.3844C77.2447 37.5877 77.4879 37.6938 77.7851 37.6938C77.9743 37.6938 78.1544 37.6496 78.3165 37.5612H78.3255Z" fill="#6DC24B"/>
<path d="M81.2709 38.171C81.0457 38.0737 80.8745 37.9412 80.7484 37.7644C80.6223 37.5965 80.5503 37.4021 80.5413 37.1899H81.2979C81.3069 37.3402 81.3789 37.4639 81.514 37.5611C81.6492 37.6584 81.8113 37.7114 82.0094 37.7114C82.2076 37.7114 82.3787 37.676 82.4868 37.5965C82.6039 37.517 82.6579 37.4197 82.6579 37.296C82.6579 37.1634 82.5949 37.0662 82.4688 37.0044C82.3427 36.9425 82.1445 36.8718 81.8653 36.7922C81.5951 36.7215 81.3789 36.6508 81.2168 36.5801C81.0547 36.5094 80.9016 36.4122 80.7845 36.2708C80.6674 36.1294 80.6043 35.9438 80.6043 35.7229C80.6043 35.5373 80.6584 35.3693 80.7755 35.2103C80.8836 35.06 81.0457 34.9363 81.2528 34.8479C81.46 34.7595 81.7032 34.7153 81.9734 34.7153C82.3787 34.7153 82.703 34.8125 82.9462 35.0158C83.1894 35.2191 83.3245 35.4931 83.3425 35.8377H82.6039C82.5949 35.6787 82.5228 35.5549 82.4148 35.4666C82.2977 35.3782 82.1445 35.3251 81.9464 35.3251C81.7482 35.3251 81.6041 35.3605 81.505 35.4312C81.406 35.5019 81.3519 35.5991 81.3519 35.714C81.3519 35.8024 81.388 35.8819 81.46 35.9438C81.5321 36.0057 81.6131 36.0587 81.7122 36.094C81.8113 36.1294 81.9554 36.1736 82.1536 36.2266C82.4148 36.2973 82.6219 36.3592 82.7931 36.4299C82.9552 36.5006 83.0993 36.5978 83.2254 36.7392C83.3515 36.8806 83.4055 37.0574 83.4145 37.2783C83.4145 37.4728 83.3605 37.6584 83.2434 37.8086C83.1353 37.9677 82.9732 38.0914 82.766 38.1798C82.5589 38.2682 82.3247 38.3124 82.0455 38.3124C81.7662 38.3124 81.5141 38.2593 81.2979 38.1621L81.2709 38.171Z" fill="#6DC24B"/>
<path d="M86.594 33.5752V38.2593H85.8555V33.5752H86.594Z" fill="#6DC24B"/>
<path d="M88.5576 38.0915C88.2874 37.9412 88.0712 37.7291 87.9181 37.4551C87.765 37.1812 87.6839 36.863 87.6839 36.5095C87.6839 36.156 87.765 35.8378 87.9181 35.5638C88.0712 35.2898 88.2964 35.0777 88.5666 34.9275C88.8368 34.7772 89.1521 34.7065 89.4853 34.7065C89.8186 34.7065 90.1338 34.7772 90.404 34.9275C90.6833 35.0777 90.8994 35.2898 91.0525 35.5638C91.2147 35.8378 91.2867 36.156 91.2867 36.5095C91.2867 36.863 91.2057 37.1812 91.0435 37.4551C90.8814 37.7291 90.6562 37.9412 90.377 38.0915C90.0978 38.2417 89.7825 38.3124 89.4493 38.3124C89.116 38.3124 88.8098 38.2417 88.5396 38.0915H88.5576ZM89.9987 37.5612C90.1608 37.4728 90.296 37.3402 90.404 37.1635C90.5031 36.9867 90.5572 36.7746 90.5572 36.5183C90.5572 36.262 90.5121 36.0499 90.404 35.8731C90.305 35.6964 90.1789 35.5638 90.0077 35.4754C89.8366 35.3871 89.6655 35.3429 89.4763 35.3429C89.2872 35.3429 89.107 35.3871 88.9539 35.4754C88.8008 35.5638 88.6657 35.6964 88.5666 35.8731C88.4675 36.0499 88.4225 36.262 88.4225 36.5183C88.4225 36.8895 88.5216 37.1812 88.7197 37.3844C88.9179 37.5877 89.1611 37.6938 89.4583 37.6938C89.6474 37.6938 89.8276 37.6496 89.9897 37.5612H89.9987Z" fill="#6DC24B"/>
<path d="M93.6916 35.5726C93.8447 35.2986 94.0429 35.0953 94.2951 34.9451C94.5473 34.7948 94.8355 34.7241 95.1508 34.7241C95.43 34.7241 95.6732 34.7771 95.8803 34.892C96.0965 34.9981 96.2586 35.1307 96.3757 35.2897V34.786H97.1143V39.9296H96.3757V37.7644C96.2586 37.9234 96.0875 38.056 95.8713 38.1621C95.6552 38.2681 95.403 38.33 95.1237 38.33C94.8175 38.33 94.5383 38.2504 94.2861 38.1002C94.0339 37.95 93.8357 37.729 93.6826 37.455C93.5385 37.1811 93.4574 36.8629 93.4574 36.5182C93.4574 36.1735 93.5295 35.8554 93.6826 35.5902L93.6916 35.5726ZM96.2316 35.8907C96.1325 35.714 95.9974 35.5814 95.8353 35.4842C95.6732 35.3958 95.493 35.3428 95.3039 35.3428C95.1147 35.3428 94.9346 35.387 94.7725 35.4753C94.6103 35.5637 94.4752 35.6963 94.3762 35.873C94.2771 36.0498 94.223 36.2531 94.223 36.5005C94.223 36.748 94.2771 36.9513 94.3762 37.1369C94.4752 37.3225 94.6103 37.455 94.7725 37.5523C94.9346 37.6495 95.1147 37.6937 95.2949 37.6937C95.475 37.6937 95.6642 37.6495 95.8263 37.5523C95.9884 37.455 96.1235 37.3225 96.2226 37.1457C96.3217 36.9689 96.3757 36.7568 96.3757 36.5182C96.3757 36.2796 96.3217 36.0675 96.2226 35.8907H96.2316Z" fill="#6DC24B"/>
<path d="M101.681 34.7683V38.2593H100.942V37.8439C100.825 37.9853 100.672 38.1002 100.492 38.1797C100.303 38.2593 100.105 38.3035 99.8975 38.3035C99.6183 38.3035 99.3661 38.2504 99.1499 38.1356C98.9247 38.0207 98.7536 37.8527 98.6275 37.6318C98.5014 37.4108 98.4383 37.1369 98.4383 36.8187V34.7683H99.1679V36.7127C99.1679 37.022 99.249 37.2606 99.4021 37.4285C99.5642 37.5964 99.7804 37.676 100.051 37.676C100.321 37.676 100.546 37.5964 100.708 37.4285C100.87 37.2606 100.951 37.022 100.951 36.7127V34.7683H101.69H101.681Z" fill="#6DC24B"/>
<path d="M106.247 36.7834H103.536C103.554 37.0662 103.662 37.2871 103.852 37.455C104.041 37.623 104.275 37.7113 104.545 37.7113C104.941 37.7113 105.221 37.5523 105.383 37.2252H106.175C106.067 37.5434 105.878 37.8085 105.59 38.0118C105.311 38.2151 104.959 38.3212 104.545 38.3212C104.203 38.3212 103.906 38.2504 103.635 38.1002C103.365 37.95 103.158 37.7378 103.005 37.4639C102.852 37.1899 102.78 36.8717 102.78 36.5182C102.78 36.1647 102.852 35.8465 103.005 35.5726C103.158 35.2986 103.365 35.0865 103.635 34.9451C103.906 34.7948 104.212 34.7241 104.563 34.7241C104.914 34.7241 105.194 34.7948 105.464 34.9362C105.734 35.0776 105.932 35.2809 106.076 35.5372C106.22 35.7935 106.293 36.094 106.293 36.4298C106.293 36.5624 106.293 36.6773 106.265 36.7834H106.247ZM105.509 36.2001C105.509 35.9349 105.41 35.7228 105.221 35.5637C105.032 35.4046 104.797 35.3251 104.518 35.3251C104.266 35.3251 104.05 35.4046 103.87 35.5637C103.689 35.7228 103.581 35.9349 103.545 36.2089H105.509V36.2001Z" fill="#6DC24B"/>
<path d="M108.652 35.5726C108.805 35.2987 109.004 35.0954 109.256 34.9451C109.508 34.7949 109.796 34.7242 110.112 34.7242C110.346 34.7242 110.571 34.7772 110.796 34.8744C111.021 34.9717 111.201 35.1042 111.336 35.2721V33.5841H112.075V38.2682H111.336V37.7468C111.219 37.9147 111.048 38.0561 110.832 38.1621C110.616 38.2682 110.373 38.3301 110.103 38.3301C109.796 38.3301 109.508 38.2505 109.256 38.1003C109.004 37.95 108.796 37.7291 108.652 37.4551C108.508 37.1811 108.427 36.863 108.427 36.5183C108.427 36.1736 108.499 35.8554 108.652 35.5903V35.5726ZM111.183 35.8908C111.084 35.714 110.949 35.5815 110.787 35.4843C110.625 35.3959 110.445 35.3429 110.256 35.3429C110.066 35.3429 109.886 35.387 109.724 35.4754C109.562 35.5638 109.427 35.6964 109.328 35.8731C109.229 36.0499 109.175 36.2532 109.175 36.5006C109.175 36.7481 109.229 36.9514 109.328 37.1369C109.427 37.3225 109.562 37.4551 109.724 37.5523C109.886 37.6495 110.066 37.6937 110.247 37.6937C110.427 37.6937 110.616 37.6495 110.778 37.5523C110.94 37.4551 111.075 37.3225 111.174 37.1458C111.273 36.969 111.327 36.7569 111.327 36.5183C111.327 36.2797 111.273 36.0676 111.174 35.8908H111.183Z" fill="#6DC24B"/>
<path d="M116.642 36.7834H113.931C113.949 37.0662 114.057 37.2871 114.246 37.455C114.435 37.623 114.669 37.7113 114.939 37.7113C115.336 37.7113 115.615 37.5523 115.777 37.2252H116.57C116.461 37.5434 116.272 37.8085 115.984 38.0118C115.705 38.2151 115.354 38.3212 114.939 38.3212C114.597 38.3212 114.3 38.2504 114.03 38.1002C113.759 37.95 113.552 37.7378 113.399 37.4639C113.246 37.1899 113.174 36.8717 113.174 36.5182C113.174 36.1647 113.246 35.8465 113.399 35.5726C113.552 35.2986 113.759 35.0865 114.03 34.9451C114.3 34.7948 114.606 34.7241 114.957 34.7241C115.309 34.7241 115.588 34.7948 115.858 34.9362C116.128 35.0776 116.326 35.2809 116.471 35.5372C116.615 35.7935 116.687 36.094 116.687 36.4298C116.687 36.5624 116.687 36.6773 116.66 36.7834H116.642ZM115.903 36.2001C115.903 35.9349 115.804 35.7228 115.615 35.5637C115.426 35.4046 115.192 35.3251 114.912 35.3251C114.66 35.3251 114.444 35.4046 114.264 35.5637C114.084 35.7228 113.976 35.9349 113.94 36.2089H115.903V36.2001Z" fill="#6DC24B"/>
<path d="M117.741 35.5638C117.894 35.2898 118.092 35.0777 118.353 34.9363C118.614 34.786 118.911 34.7153 119.254 34.7153C119.686 34.7153 120.037 34.8125 120.326 35.0158C120.605 35.2191 120.794 35.5019 120.893 35.8731H120.1C120.037 35.6963 119.929 35.5638 119.794 35.4666C119.65 35.3693 119.47 35.3163 119.263 35.3163C118.965 35.3163 118.722 35.4224 118.542 35.6256C118.362 35.8377 118.272 36.1294 118.272 36.5006C118.272 36.8718 118.362 37.1723 118.542 37.3844C118.722 37.5965 118.956 37.7025 119.263 37.7025C119.686 37.7025 119.974 37.517 120.109 37.1546H120.902C120.803 37.5081 120.605 37.7909 120.326 38.003C120.046 38.2151 119.686 38.3212 119.272 38.3212C118.929 38.3212 118.632 38.2505 118.371 38.1003C118.11 37.95 117.903 37.7379 117.759 37.4639C117.614 37.1899 117.533 36.8718 117.533 36.5183C117.533 36.1647 117.605 35.8466 117.759 35.5726L117.741 35.5638Z" fill="#6DC24B"/>
<path d="M122.037 34.1762C121.947 34.0878 121.902 33.9818 121.902 33.8492C121.902 33.7167 121.947 33.6106 122.037 33.5222C122.127 33.4338 122.235 33.3896 122.37 33.3896C122.505 33.3896 122.613 33.4338 122.703 33.5222C122.793 33.6106 122.839 33.7167 122.839 33.8492C122.839 33.9818 122.793 34.0878 122.703 34.1762C122.613 34.2646 122.505 34.3088 122.37 34.3088C122.235 34.3088 122.127 34.2646 122.037 34.1762ZM122.739 34.7684V38.2593H122.001V34.7684H122.739Z" fill="#6DC24B"/>
<path d="M129.125 34.8833C129.351 34.9982 129.522 35.1661 129.648 35.3871C129.774 35.608 129.837 35.882 129.837 36.2001V38.2594H129.107V36.3062C129.107 35.9969 129.026 35.7583 128.873 35.5903C128.711 35.4224 128.495 35.3429 128.225 35.3429C127.955 35.3429 127.729 35.4224 127.567 35.5903C127.405 35.7583 127.324 35.9969 127.324 36.3062V38.2594H126.594V36.3062C126.594 35.9969 126.513 35.7583 126.36 35.5903C126.198 35.4224 125.982 35.3429 125.712 35.3429C125.442 35.3429 125.216 35.4224 125.054 35.5903C124.892 35.7583 124.811 35.9969 124.811 36.3062V38.2594H124.072V34.7684H124.811V35.1661C124.928 35.0247 125.081 34.9098 125.27 34.8303C125.46 34.7507 125.649 34.7065 125.865 34.7065C126.153 34.7065 126.405 34.7684 126.631 34.8833C126.856 34.9982 127.027 35.175 127.144 35.3959C127.252 35.1838 127.423 35.0159 127.648 34.8921C127.873 34.7684 128.126 34.7065 128.387 34.7065C128.666 34.7065 128.918 34.7596 129.134 34.8745L129.125 34.8833Z" fill="#6DC24B"/>
<path d="M131.774 38.0915C131.503 37.9412 131.287 37.7291 131.134 37.4551C130.981 37.1812 130.9 36.863 130.9 36.5095C130.9 36.156 130.981 35.8378 131.134 35.5638C131.287 35.2898 131.512 35.0777 131.783 34.9275C132.053 34.7772 132.368 34.7065 132.701 34.7065C133.035 34.7065 133.35 34.7772 133.62 34.9275C133.899 35.0777 134.115 35.2898 134.269 35.5638C134.431 35.8378 134.503 36.156 134.503 36.5095C134.503 36.863 134.422 37.1812 134.259 37.4551C134.097 37.7291 133.872 37.9412 133.593 38.0915C133.314 38.2417 132.998 38.3124 132.665 38.3124C132.332 38.3124 132.026 38.2417 131.756 38.0915H131.774ZM133.215 37.5612C133.377 37.4728 133.512 37.3402 133.62 37.1635C133.719 36.9867 133.773 36.7746 133.773 36.5183C133.773 36.262 133.728 36.0499 133.62 35.8731C133.521 35.6964 133.395 35.5638 133.224 35.4754C133.053 35.3871 132.881 35.3429 132.692 35.3429C132.503 35.3429 132.323 35.3871 132.17 35.4754C132.017 35.5638 131.882 35.6964 131.783 35.8731C131.683 36.0499 131.638 36.262 131.638 36.5183C131.638 36.8895 131.738 37.1812 131.936 37.3844C132.134 37.5877 132.377 37.6938 132.674 37.6938C132.863 37.6938 133.044 37.6496 133.206 37.5612H133.215Z" fill="#6DC24B"/>
<path d="M136.169 38.171C135.944 38.0737 135.773 37.9412 135.647 37.7644C135.52 37.5965 135.448 37.4021 135.439 37.1899H136.196C136.205 37.3402 136.277 37.4639 136.412 37.5611C136.547 37.6584 136.709 37.7114 136.908 37.7114C137.106 37.7114 137.277 37.676 137.385 37.5965C137.502 37.517 137.556 37.4197 137.556 37.296C137.556 37.1634 137.493 37.0662 137.367 37.0044C137.241 36.9425 137.043 36.8718 136.763 36.7922C136.493 36.7215 136.277 36.6508 136.115 36.5801C135.953 36.5094 135.8 36.4122 135.683 36.2708C135.566 36.1294 135.502 35.9438 135.502 35.7229C135.502 35.5373 135.557 35.3693 135.674 35.2103C135.782 35.06 135.944 34.9363 136.151 34.8479C136.358 34.7595 136.601 34.7153 136.872 34.7153C137.277 34.7153 137.601 34.8125 137.844 35.0158C138.088 35.2191 138.223 35.4931 138.241 35.8377H137.502C137.493 35.6787 137.421 35.5549 137.313 35.4666C137.196 35.3782 137.043 35.3251 136.845 35.3251C136.646 35.3251 136.502 35.3605 136.403 35.4312C136.304 35.5019 136.25 35.5991 136.25 35.714C136.25 35.8024 136.286 35.8819 136.358 35.9438C136.43 36.0057 136.511 36.0587 136.61 36.094C136.709 36.1294 136.854 36.1736 137.052 36.2266C137.313 36.2973 137.52 36.3592 137.691 36.4299C137.853 36.5006 137.997 36.5978 138.124 36.7392C138.25 36.8806 138.304 37.0574 138.313 37.2783C138.313 37.4728 138.259 37.6584 138.142 37.8086C138.033 37.9677 137.871 38.0914 137.664 38.1798C137.457 38.2682 137.223 38.3124 136.944 38.3124C136.664 38.3124 136.412 38.2593 136.196 38.1621L136.169 38.171Z" fill="#6DC24B"/>
<path fill-rule="evenodd" clip-rule="evenodd" d="M163.884 29.4744C162.614 29.4744 161.578 29.2534 160.785 28.8115C159.984 28.3697 159.389 27.7687 159.011 27.0086C158.624 26.2486 158.434 25.3913 158.434 24.4456V22.4836C158.434 21.5379 158.624 20.6807 158.993 19.9206C159.371 19.1606 159.957 18.5596 160.767 18.1177C161.578 17.6758 162.596 17.4548 163.83 17.4548C164.613 17.4548 165.307 17.5432 165.91 17.7288C166.514 17.9056 166.982 18.1442 167.333 18.4447C167.685 18.7363 167.856 19.0545 167.856 19.3815C167.856 19.5583 167.802 19.7704 167.694 20.0178L166.946 21.2816L166.009 20.7514C165.82 20.6365 165.568 20.5216 165.271 20.4067C164.974 20.2918 164.568 20.2388 164.073 20.2388C163.226 20.2388 162.605 20.442 162.217 20.8398C161.83 21.2375 161.641 21.7942 161.641 22.4924V24.4545C161.641 25.1615 161.83 25.7094 162.217 26.116C162.605 26.5137 163.226 26.717 164.091 26.717C164.604 26.717 165.019 26.6639 165.289 26.5225L166 26.1513L167.081 25.5327L167.829 26.823C168.27 27.7952 167.694 28.3785 166.874 28.8204C166.613 28.9618 166.316 29.0855 165.973 29.1916C165.352 29.3948 164.64 29.4832 163.857 29.4832L163.884 29.4744Z" fill="#002E3E"/>
<path fill-rule="evenodd" clip-rule="evenodd" d="M155.048 29.3683H153.445V28.3697V18.5772C153.445 18.2856 153.598 18.047 153.895 17.8614C154.192 17.6846 154.579 17.5874 155.048 17.5874H156.678V28.352C156.678 28.5994 156.516 28.8292 156.201 29.0413C155.885 29.2534 155.498 29.3595 155.048 29.3595V29.3683Z" fill="#002E3E"/>
<path fill-rule="evenodd" clip-rule="evenodd" d="M124.577 29.3684H122.974V28.3697V12.6736C122.974 12.3819 123.127 12.1433 123.424 11.9577C123.721 11.7809 124.109 11.6837 124.577 11.6837H126.207V28.352C126.207 28.5995 126.045 28.8293 125.73 29.0414C125.415 29.2535 125.027 29.3595 124.577 29.3595V29.3684Z" fill="#002E3E"/>
<path fill-rule="evenodd" clip-rule="evenodd" d="M100.303 22.3864H103.96C104.239 22.3864 104.437 22.3422 104.545 22.2539C104.653 22.1655 104.707 21.9887 104.707 21.7236C104.707 21.3436 104.608 21.0077 104.41 20.7161C104.212 20.4244 103.942 20.1946 103.608 20.0267C103.275 19.8588 102.906 19.7793 102.51 19.7793C102.113 19.7793 101.771 19.8588 101.438 20.009C101.104 20.1681 100.834 20.3891 100.627 20.6719C100.42 20.9547 100.312 21.2994 100.312 21.6882V22.3776L100.303 22.3864ZM103.131 29.4744C101.942 29.4744 100.897 29.2623 99.9876 28.8469C99.0779 28.4316 98.3663 27.8394 97.8439 27.0794C97.3305 26.3193 97.0693 25.4355 97.0693 24.4368V22.3511C97.0693 21.4673 97.3125 20.6542 97.8078 19.9118C98.3032 19.1694 98.9608 18.5685 99.7804 18.1177C100.609 17.667 101.528 17.446 102.546 17.446C103.482 17.446 104.338 17.6405 105.113 18.0382C105.887 18.4271 106.518 18.975 107.004 19.6555C107.49 20.3449 107.734 21.1403 107.734 22.0594C107.734 22.7665 107.617 23.2702 107.382 23.5707C107.148 23.8712 106.851 24.0656 106.491 24.1363C106.13 24.207 105.761 24.2424 105.374 24.2424H100.294V24.6136C100.294 25.3206 100.564 25.8862 101.104 26.3193C101.645 26.7524 102.347 26.9733 103.221 26.9733C103.771 26.9733 104.23 26.8938 104.599 26.7258C104.968 26.5579 105.284 26.4077 105.554 26.2574C105.824 26.1072 106.067 26.0365 106.302 26.0365C106.554 26.0365 106.77 26.116 106.95 26.284C107.085 26.3988 107.193 26.5314 107.283 26.6817L107.977 27.8571L106.392 28.7497C106.121 28.8911 105.815 29.0237 105.464 29.1474C104.806 29.3684 104.023 29.4833 103.122 29.4833L103.131 29.4744Z" fill="#002E3E"/>
<path fill-rule="evenodd" clip-rule="evenodd" d="M93.6466 29.3684C92.1424 29.3684 90.9985 29.0502 90.2059 28.4139C89.4133 27.7775 89.0169 26.77 89.0169 25.3913V12.3907H90.6202C91.0165 12.3907 91.3948 12.4791 91.7371 12.6647C92.0793 12.8415 92.2505 13.0801 92.2505 13.3806V17.6051H96.0244V18.6745C96.0244 18.6745 96.0244 18.7364 96.0244 18.7629C96.0244 19.0545 95.9524 19.3197 95.8083 19.5583C95.6642 19.7969 95.466 19.9118 95.1958 19.9118H92.2415V25.4001C92.2415 25.8774 92.3496 26.2132 92.5567 26.4077C92.7639 26.6021 93.1242 26.6993 93.6466 26.6993H94.6914H95.9974V28.025V28.0869C95.9884 28.405 95.8713 28.6967 95.6642 28.9618C95.439 29.2358 95.0967 29.3772 94.6283 29.3772H93.6556L93.6466 29.3684Z" fill="#002E3E"/>
<path fill-rule="evenodd" clip-rule="evenodd" d="M70.8587 29.4745C69.8589 29.4745 68.9402 29.2447 68.1205 28.7763C67.2919 28.3079 66.6344 27.698 66.148 26.938C65.6526 26.1779 65.4094 25.3648 65.4094 24.4987V18.6038C65.4094 18.3564 65.5715 18.1266 65.8958 17.9145C66.22 17.7024 66.5983 17.5963 67.0307 17.5963H68.6339V18.6038V24.4987C68.6339 24.8788 68.733 25.2234 68.9312 25.5504C69.1293 25.8774 69.3995 26.1514 69.7328 26.3724C70.066 26.5933 70.4353 26.7082 70.8317 26.7082C71.228 26.7082 71.6243 26.6021 71.9485 26.39C72.2728 26.1779 72.534 25.8951 72.7321 25.5593C72.9303 25.2146 73.0294 24.8611 73.0294 24.5076V18.595C73.0294 18.3299 73.1915 18.1001 73.5158 17.9056C73.84 17.7112 74.2093 17.614 74.6326 17.614H76.2629V24.5164C76.2629 25.4002 76.0197 26.2221 75.5243 26.9822C75.0289 27.7422 74.3714 28.352 73.5518 28.8116C72.7231 29.2712 71.8314 29.501 70.8587 29.501V29.4745Z" fill="#002E3E"/>
<path fill-rule="evenodd" clip-rule="evenodd" d="M155.048 15.4841H153.445V14.4765V13.3718C153.445 13.0802 153.598 12.8415 153.895 12.6559C154.192 12.4792 154.579 12.382 155.048 12.382H156.678V13.363V14.4677C156.678 14.7063 156.516 14.945 156.201 15.1571C155.885 15.3692 155.498 15.4752 155.048 15.4752V15.4841Z" fill="#002E3E"/>
<path fill-rule="evenodd" clip-rule="evenodd" d="M82.721 29.4745C81.8833 29.4745 81.1267 29.3684 80.4332 29.1652C79.9558 29.0238 79.5505 28.8558 79.2082 28.6526L77.7311 27.813L78.4697 26.558C78.5417 26.4342 78.6318 26.3105 78.7309 26.2045C78.893 26.0365 79.0731 25.957 79.2983 25.957C79.5325 25.957 79.7757 26.0542 80.0369 26.2398C80.2981 26.4254 80.6223 26.611 81.0096 26.7878C81.406 26.9645 81.9464 27.0617 82.6489 27.0617C83.3965 27.0617 83.8919 26.9468 84.1351 26.7171C84.3783 26.4873 84.4954 26.2487 84.4954 26.0012C84.4954 25.6388 84.3513 25.3649 84.054 25.1704C83.7658 24.976 83.3875 24.8081 82.9372 24.6755C82.4868 24.5429 82.0094 24.4104 81.496 24.269C80.9916 24.1276 80.5052 23.942 80.0549 23.7033C79.6045 23.4647 79.2353 23.1377 78.956 22.7223C78.6678 22.3069 78.5327 21.759 78.5327 21.0873C78.5327 20.4952 78.6768 19.9295 78.956 19.3728C79.2353 18.816 79.7036 18.3564 80.3611 17.9852C81.0096 17.614 81.8923 17.4373 83.0092 17.4373C83.6938 17.4373 84.3423 17.508 84.9457 17.6494C85.4681 17.7731 85.9095 17.9233 86.2698 18.1266L87.3867 18.7629L86.7111 19.9119C86.6391 20.0356 86.549 20.1593 86.4499 20.2654C86.2788 20.4598 86.0626 20.557 85.8104 20.557C85.6303 20.557 85.4051 20.4952 85.1439 20.3714C84.8827 20.2477 84.5855 20.1328 84.2522 20.0179C83.9189 19.903 83.5226 19.85 83.0543 19.85C82.6399 19.85 82.3067 19.9119 82.0545 20.0179C81.8023 20.1328 81.6221 20.2742 81.505 20.4333C81.3879 20.6012 81.3339 20.7691 81.3339 20.9459C81.3339 21.2376 81.478 21.4673 81.7572 21.6353C82.0364 21.7943 82.4148 21.9358 82.8741 22.0506C83.3335 22.1655 83.8199 22.2893 84.3243 22.4307C84.8286 22.5721 85.315 22.7754 85.7744 23.0405C86.2338 23.3145 86.603 23.668 86.8913 24.1099C87.1705 24.5518 87.3146 25.1439 87.3146 25.8775C87.3146 26.9557 86.9183 27.8218 86.1257 28.4758C85.333 29.1298 84.1982 29.4568 82.712 29.4568L82.721 29.4745Z" fill="#002E3E"/>
<path fill-rule="evenodd" clip-rule="evenodd" d="M111.264 29.3684H109.661V28.3697V18.5773C109.661 18.2857 109.814 18.0471 110.112 17.8615C110.409 17.6847 110.796 17.5875 111.264 17.5875H112.688V19.3021C112.94 18.8248 113.354 18.4006 113.922 18.0117C114.498 17.6317 115.201 17.4373 116.038 17.4373C116.822 17.4373 117.542 17.6582 118.191 18.1089C118.839 18.5597 119.362 19.1606 119.758 19.9119C120.145 20.6631 120.344 21.5027 120.344 22.413V28.3432C120.344 28.6702 120.181 28.9177 119.839 29.0945C119.506 29.2624 119.128 29.3508 118.713 29.3508H117.11V22.413C117.11 22.033 117.011 21.6883 116.822 21.3613C116.633 21.0343 116.371 20.7603 116.038 20.5394C115.705 20.3184 115.336 20.2035 114.939 20.2035C114.606 20.2035 114.282 20.2919 113.967 20.4775C113.651 20.6543 113.39 20.9106 113.192 21.2376C112.994 21.5646 112.895 21.9534 112.895 22.413V28.3432C112.895 28.5907 112.733 28.8205 112.417 29.0326C112.102 29.2447 111.715 29.3508 111.264 29.3508V29.3684Z" fill="#002E3E"/>
<path fill-rule="evenodd" clip-rule="evenodd" d="M58.9693 29.4745C58.1317 29.4745 57.3751 29.3684 56.6815 29.1652C56.2042 29.0238 55.7988 28.8558 55.4566 28.6526L53.9794 27.813L54.718 26.558C54.7901 26.4342 54.8801 26.3105 54.9792 26.2045C55.1413 26.0365 55.3215 25.957 55.5376 25.957C55.7718 25.957 56.015 26.0542 56.2762 26.2398C56.5374 26.4254 56.8617 26.611 57.249 26.7878C57.6453 26.9645 58.1857 27.0617 58.8883 27.0617C59.6359 27.0617 60.1312 26.9468 60.3744 26.7171C60.6176 26.4873 60.7347 26.2487 60.7347 26.0012C60.7347 25.6388 60.5906 25.3649 60.2934 25.1704C60.0052 24.976 59.6269 24.8081 59.1765 24.6755C58.7261 24.5429 58.2488 24.4104 57.7354 24.269C57.231 24.1276 56.7446 23.942 56.2942 23.7033C55.8439 23.4647 55.4746 23.1377 55.1954 22.7223C54.9162 22.3069 54.772 21.759 54.772 21.0873C54.772 20.4952 54.9162 19.9295 55.1954 19.3728C55.4836 18.816 55.943 18.3564 56.6005 17.9852C57.249 17.614 58.1317 17.4373 59.2486 17.4373C59.9331 17.4373 60.5816 17.508 61.1851 17.6494C61.7075 17.7731 62.1488 17.9233 62.5091 18.1266L63.626 18.7629L62.9505 19.9119C62.8784 20.0356 62.7883 20.1593 62.6893 20.2654C62.5181 20.4598 62.302 20.557 62.0498 20.557C61.8696 20.557 61.6444 20.4952 61.3832 20.3714C61.122 20.2477 60.8248 20.1328 60.4915 20.0179C60.1583 19.903 59.753 19.85 59.2936 19.85C58.8793 19.85 58.546 19.9119 58.2938 20.0179C58.0416 20.1328 57.8615 20.2742 57.7444 20.4333C57.6273 20.6012 57.5732 20.7691 57.5732 20.9459C57.5732 21.2376 57.7174 21.4673 57.9966 21.6353C58.2758 21.7943 58.6541 21.9358 59.1134 22.0506C59.5728 22.1655 60.0592 22.2893 60.5636 22.4307C61.077 22.5721 61.5544 22.7754 62.0137 23.0405C62.4731 23.3145 62.8424 23.668 63.1306 24.1099C63.4098 24.5518 63.5539 25.1439 63.5539 25.8775C63.5539 26.9557 63.1576 27.8218 62.365 28.4758C61.5724 29.1298 60.4375 29.4568 58.9513 29.4568L58.9693 29.4745Z" fill="#002E3E"/>
<path fill-rule="evenodd" clip-rule="evenodd" d="M148.302 31.569L148.265 29.1563C147.581 29.4656 146.842 29.6158 146.068 29.6158C145.104 29.6158 144.212 29.3861 143.393 28.9177C142.573 28.4492 141.915 27.8306 141.42 27.0617C140.916 26.2928 140.673 25.462 140.673 24.5782V22.5632C140.673 21.6794 140.916 20.8575 141.402 20.0974C141.888 19.3374 142.537 18.7275 143.366 18.268C144.194 17.8084 145.095 17.5786 146.077 17.5786H151.508V24.6755L151.535 31.5602V32.5677C151.535 33.4338 151.283 34.2557 150.787 35.0246C150.283 35.7935 149.626 36.4122 148.797 36.8894C147.968 37.3667 147.077 37.6053 146.104 37.6053C145.131 37.6053 144.239 37.3755 143.429 36.9071C142.609 36.4387 141.952 35.8201 141.456 35.0512C140.952 34.2823 140.709 33.4515 140.709 32.5677V31.5602H142.222C143.086 31.5602 143.816 32.1523 143.978 32.9831C144.023 33.2129 144.104 33.4427 144.221 33.6636C144.41 34.0171 144.672 34.2999 145.014 34.512C145.347 34.7242 145.716 34.8302 146.113 34.8302C146.509 34.8302 146.878 34.7242 147.212 34.512C147.545 34.2999 147.815 34.0171 148.013 33.6636C148.211 33.3101 148.311 32.9477 148.311 32.5677V31.5602L148.302 31.569ZM146.068 26.8407C146.473 26.8407 146.833 26.7347 147.167 26.5226C147.5 26.3105 147.77 26.0277 147.968 25.6741C148.166 25.3206 148.265 24.9583 148.265 24.5782V22.5632C148.265 22.1832 148.166 21.8385 147.968 21.5115C147.77 21.1845 147.509 20.9105 147.185 20.6896C146.86 20.4686 146.491 20.3537 146.068 20.3537C145.644 20.3537 145.302 20.4598 144.969 20.6719C144.636 20.884 144.374 21.158 144.176 21.4938C143.987 21.8296 143.888 22.1832 143.888 22.5632V24.5782C143.888 24.9583 143.987 25.3206 144.176 25.6741C144.365 26.0277 144.627 26.3105 144.969 26.5226C145.302 26.7347 145.671 26.8407 146.068 26.8407Z" fill="#002E3E"/>
<path fill-rule="evenodd" clip-rule="evenodd" d="M133.881 26.6994C134.278 26.6994 134.647 26.5933 134.98 26.3812C135.313 26.1691 135.584 25.8863 135.782 25.5328C135.98 25.1793 136.079 24.8169 136.079 24.4369V22.4218C136.079 22.0418 135.98 21.6971 135.782 21.3701C135.584 21.0431 135.322 20.7691 134.998 20.5482C134.674 20.3273 134.305 20.2212 133.881 20.2212C133.458 20.2212 133.116 20.3273 132.782 20.5394C132.449 20.7515 132.188 21.0254 131.99 21.3613C131.801 21.6971 131.701 22.0506 131.701 22.4307V24.4457C131.701 24.8257 131.801 25.1881 131.99 25.5416C132.179 25.8951 132.44 26.1779 132.782 26.3901C133.116 26.6022 133.485 26.7082 133.881 26.7082V26.6994ZM133.881 29.4745C132.917 29.4745 132.026 29.2447 131.206 28.7763C130.386 28.3079 129.729 27.6892 129.234 26.9203C128.729 26.1514 128.486 25.3207 128.486 24.4369V22.4218C128.486 21.538 128.729 20.7161 129.216 19.9561C129.702 19.196 130.35 18.5862 131.179 18.1266C132.008 17.667 132.908 17.4373 133.89 17.4373C134.872 17.4373 135.782 17.6582 136.601 18.1089C137.43 18.5597 138.088 19.1606 138.574 19.9119C139.069 20.6631 139.312 21.5027 139.312 22.413V24.428C139.312 25.2942 139.06 26.1161 138.565 26.885C138.06 27.6539 137.403 28.2725 136.574 28.7498C135.746 29.227 134.854 29.4657 133.881 29.4657V29.4745Z" fill="#002E3E"/>
</g>
<defs>
<clipPath id="clip0_2_183">
<rect width="168" height="47" fill="white"/>
</clipPath>
</defs>
</svg>
